ffmpeg version 4.4.2-0ubuntu0.22.04.1 Copyright (c) 2000-2021 the FFmpeg developers
  built with gcc 11 (Ubuntu 11.2.0-19ubuntu1)
  configuration: --prefix=/usr --extra-version=0ubuntu0.22.04.1 --toolchain=hardened --libdir=/usr/lib/x86_64-linux-gnu --incdir=/usr/include/x86_64-linux-gnu --arch=amd64 --enable-gpl --disable-stripping --enable-gnutls --enable-ladspa --enable-libaom --enable-libass --enable-libbluray --enable-libbs2b --enable-libcaca --enable-libcdio --enable-libcodec2 --enable-libdav1d --enable-libflite --enable-libfontconfig --enable-libfreetype --enable-libfribidi --enable-libgme --enable-libgsm --enable-libjack --enable-libmp3lame --enable-libmysofa --enable-libopenjpeg --enable-libopenmpt --enable-libopus --enable-libpulse --enable-librabbitmq --enable-librubberband --enable-libshine --enable-libsnappy --enable-libsoxr --enable-libspeex --enable-libsrt --enable-libssh --enable-libtheora --enable-libtwolame --enable-libvidstab --enable-libvorbis --enable-libvpx --enable-libwebp --enable-libx265 --enable-libxml2 --enable-libxvid --enable-libzimg --enable-libzmq --enable-libzvbi --enable-lv2 --enable-omx --enable-openal --enable-opencl --enable-opengl --enable-sdl2 --enable-pocketsphinx --enable-librsvg --enable-libmfx --enable-libdc1394 --enable-libdrm --enable-libiec61883 --enable-chromaprint --enable-frei0r --enable-libx264 --enable-shared
  libavutil      56. 70.100 / 56. 70.100
  libavcodec     58.134.100 / 58.134.100
  libavformat    58. 76.100 / 58. 76.100
  libavdevice    58. 13.100 / 58. 13.100
  libavfilter     7.110.100 /  7.110.100
  libswscale      5.  9.100 /  5.  9.100
  libswresample   3.  9.100 /  3.  9.100
  libpostproc    55.  9.100 / 55.  9.100
Input #0, flv, from '/storage/32426326/20250714/32426326-20250714-163926-273.flv':
  Metadata:
    fileSize        : 0
    audiochannels   : 2
    2.1             : false
    3.1             : false
    4.0             : false
    4.1             : false
    5.1             : false
    7.1             : false
    encoder         : obs-output module (libobs version 31.0.2)
    fps             : 60
    displayWidth    : 2560
    displayHeight   : 1440
    Title           : 技术主播没有GG
    Artist          : 蓝音BuBuLine (32426326)
    Comment         : mikufans直播间 32426326 的直播录像
                    : 主播名: 蓝音BuBuLine
                    : 直播标题: 技术主播没有GG
                    : 直播分区: 单机游戏·主机游戏
                    : 录制时间: 2025-07-14T16:39:26.2817149+00:00
                    : 直播服务器:
                    : d1--ov-gotcha05b.bilivideo.com [138.113.89.213]
                    : 
                    : 使用 mikufans录播姬 录制 https://rec.danmuji.org
                    : 录播姬版本: 2.17.3
    RecordedBy      : BililiveRecorder mikufans录播姬
    RecordedFrom    : d1--ov-gotcha05b.bilivideo.com
    StreamServers   : d1--ov-gotcha05b.bilivideo.com [138.113.89.213]
    RecorderVersion : 2.17.3+Branch.tags-v2.17.3.Sha.96407e2eba9a597dd9997c6fb731725f4294a371
    StartTime       : Mon, 14 Jul 2025 16:39:26 +0000
    RoomId          : 32426326
    ShortId         : 0
    Name            : 蓝音BuBuLine
    StreamTitle     : 技术主播没有GG
    AreaNameParent  : 单机游戏
    AreaNameChild   : 主机游戏
  Duration: 05:43:49.95, start: 0.015000, bitrate: 8823 kb/s
  Stream #0:0: Video: h264 (High), yuv420p(tv, bt709, progressive), 2560x1440 [SAR 1:1 DAR 16:9], 10240 kb/s, 60 fps, 60 tbr, 1k tbn, 120 tbc
  Stream #0:1: Audio: aac (LC), 48000 Hz, stereo, fltp, 196 kb/s
Stream mapping:
  Stream #0:0 -> #0:0 (h264 (native) -> png (native))
Press [q] to stop, [?] for help
Output #0, image2, to '/storage/32426326/20250714/32426326-20250714-154553-056.all.thumb.png':
  Metadata:
    fileSize        : 0
    audiochannels   : 2
    2.1             : false
    3.1             : false
    4.0             : false
    4.1             : false
    5.1             : false
    7.1             : false
    AreaNameChild   : 主机游戏
    fps             : 60
    displayWidth    : 2560
    displayHeight   : 1440
    Title           : 技术主播没有GG
    Artist          : 蓝音BuBuLine (32426326)
    Comment         : mikufans直播间 32426326 的直播录像
                    : 主播名: 蓝音BuBuLine
                    : 直播标题: 技术主播没有GG
                    : 直播分区: 单机游戏·主机游戏
                    : 录制时间: 2025-07-14T16:39:26.2817149+00:00
                    : 直播服务器:
                    : d1--ov-gotcha05b.bilivideo.com [138.113.89.213]
                    : 
                    : 使用 mikufans录播姬 录制 https://rec.danmuji.org
                    : 录播姬版本: 2.17.3
    RecordedBy      : BililiveRecorder mikufans录播姬
    RecordedFrom    : d1--ov-gotcha05b.bilivideo.com
    StreamServers   : d1--ov-gotcha05b.bilivideo.com [138.113.89.213]
    RecorderVersion : 2.17.3+Branch.tags-v2.17.3.Sha.96407e2eba9a597dd9997c6fb731725f4294a371
    StartTime       : Mon, 14 Jul 2025 16:39:26 +0000
    RoomId          : 32426326
    ShortId         : 0
    Name            : 蓝音BuBuLine
    StreamTitle     : 技术主播没有GG
    AreaNameParent  : 单机游戏
    encoder         : Lavf58.76.100
  Stream #0:0: Video: png, rgb24(pc, gbr/bt709/bt709, progressive), 2560x1440 [SAR 1:1 DAR 16:9], q=2-31, 200 kb/s, 60 fps, 60 tbn
    Metadata:
      encoder         : Lavc58.134.100 png
frame=    1 fps=0.0 q=0.0 size=N/A time=00:00:00.00 bitrate=N/A speed=   0x    frame=    1 fps=0.0 q=-0.0 Lsize=N/A time=00:00:00.01 bitrate=N/A speed=0.0513x    
video:202kB audio:0kB subtitle:0kB other streams:0kB global headers:0kB muxing overhead: unknown
ffmpeg version 4.4.2-0ubuntu0.22.04.1 Copyright (c) 2000-2021 the FFmpeg developers
  built with gcc 11 (Ubuntu 11.2.0-19ubuntu1)
  configuration: --prefix=/usr --extra-version=0ubuntu0.22.04.1 --toolchain=hardened --libdir=/usr/lib/x86_64-linux-gnu --incdir=/usr/include/x86_64-linux-gnu --arch=amd64 --enable-gpl --disable-stripping --enable-gnutls --enable-ladspa --enable-libaom --enable-libass --enable-libbluray --enable-libbs2b --enable-libcaca --enable-libcdio --enable-libcodec2 --enable-libdav1d --enable-libflite --enable-libfontconfig --enable-libfreetype --enable-libfribidi --enable-libgme --enable-libgsm --enable-libjack --enable-libmp3lame --enable-libmysofa --enable-libopenjpeg --enable-libopenmpt --enable-libopus --enable-libpulse --enable-librabbitmq --enable-librubberband --enable-libshine --enable-libsnappy --enable-libsoxr --enable-libspeex --enable-libsrt --enable-libssh --enable-libtheora --enable-libtwolame --enable-libvidstab --enable-libvorbis --enable-libvpx --enable-libwebp --enable-libx265 --enable-libxml2 --enable-libxvid --enable-libzimg --enable-libzmq --enable-libzvbi --enable-lv2 --enable-omx --enable-openal --enable-opencl --enable-opengl --enable-sdl2 --enable-pocketsphinx --enable-librsvg --enable-libmfx --enable-libdc1394 --enable-libdrm --enable-libiec61883 --enable-chromaprint --enable-frei0r --enable-libx264 --enable-shared
  libavutil      56. 70.100 / 56. 70.100
  libavcodec     58.134.100 / 58.134.100
  libavformat    58. 76.100 / 58. 76.100
  libavdevice    58. 13.100 / 58. 13.100
  libavfilter     7.110.100 /  7.110.100
  libswscale      5.  9.100 /  5.  9.100
  libswresample   3.  9.100 /  3.  9.100
  libpostproc    55.  9.100 / 55.  9.100
[flv @ 0x56402ff56780] Auto-inserting h264_mp4toannexb bitstream filter
Input #0, concat, from '/storage/32426326/20250714/32426326-20250714-154553-056.all.concat.txt':
  Duration: N/A, start: 0.000000, bitrate: 10436 kb/s
  Stream #0:0: Video: h264 (High), yuv420p(tv, bt709, progressive), 2560x1440 [SAR 1:1 DAR 16:9], 10240 kb/s, 60 fps, 60 tbr, 1k tbn, 120 tbc
  Stream #0:1: Audio: aac (LC), 48000 Hz, stereo, fltp, 196 kb/s
Output #0, flv, to '/storage/32426326/20250714/32426326-20250714-154553-056.all.flv':
  Metadata:
    encoder         : Lavf58.76.100
  Stream #0:0: Video: h264 (High) ([7][0][0][0] / 0x0007), yuv420p(tv, bt709, progressive), 2560x1440 [SAR 1:1 DAR 16:9], q=2-31, 10240 kb/s, 60 fps, 60 tbr, 1k tbn, 1k tbc
  Stream #0:1: Audio: aac (LC) ([10][0][0][0] / 0x000A), 48000 Hz, stereo, fltp, 196 kb/s
Stream mapping:
  Stream #0:0 -> #0:0 (copy)
  Stream #0:1 -> #0:1 (copy)
Press [q] to stop, [?] for help
frame=    1 fps=0.0 q=-1.0 size=       0kB time=00:00:00.00 bitrate=N/A speed=N/A    frame= 5042 fps=0.0 q=-1.0 size=   34816kB time=00:01:44.60 bitrate=2726.7kbits/s speed= 209x    frame= 6618 fps=6604 q=-1.0 size=   73472kB time=00:02:27.64 bitrate=4076.6kbits/s speed= 147x    frame= 7391 fps=4919 q=-1.0 size=  112640kB time=00:03:05.36 bitrate=4978.1kbits/s speed= 123x    frame= 8187 fps=4087 q=-1.0 size=  150784kB time=00:03:44.90 bitrate=5492.1kbits/s speed= 112x    frame= 9013 fps=3601 q=-1.0 size=  189440kB time=00:04:26.06 bitrate=5832.8kbits/s speed= 106x    frame= 9825 fps=3271 q=-1.0 size=  228352kB time=00:05:06.27 bitrate=6107.8kbits/s speed= 102x    frame=10669 fps=3044 q=-1.0 size=  268288kB time=00:05:47.60 bitrate=6322.8kbits/s speed=99.2x    frame=11533 fps=2880 q=-1.0 size=  309248kB time=00:06:30.09 bitrate=6494.2kbits/s speed=97.4x    frame=12394 fps=2751 q=-1.0 size=  350720kB time=00:07:12.16 bitrate=6648.2kbits/s speed=95.9x    frame=13217 fps=2640 q=-1.0 size=  391680kB time=00:07:53.04 bitrate=6783.0kbits/s speed=94.5x    frame=14039 fps=2549 q=-1.0 size=  432128kB time=00:08:33.92 bitrate=6888.1kbits/s speed=93.3x    frame=14832 fps=2469 q=-1.0 size=  471040kB time=00:09:12.75 bitrate=6980.9kbits/s speed=  92x    frame=15658 fps=2406 q=-1.0 size=  512256kB time=00:09:53.87 bitrate=7066.1kbits/s speed=91.2x    frame=16528 fps=2358 q=-1.0 size=  553984kB time=00:10:37.07 bitrate=7123.6kbits/s speed=90.9x    frame=17345 fps=2310 q=-1.0 size=  594176kB time=00:11:17.59 bitrate=7183.5kbits/s speed=90.2x    frame=18175 fps=2269 q=-1.0 size=  634880kB time=00:11:58.82 bitrate=7235.3kbits/s speed=89.7x    frame=19038 fps=2237 q=-1.0 size=  677376kB time=00:12:41.74 bitrate=7284.7kbits/s speed=89.5x    frame=19845 fps=2202 q=-1.0 size=  716544kB time=00:13:21.81 bitrate=7320.8kbits/s speed=  89x    frame=20714 fps=2178 q=-1.0 size=  759552kB time=00:14:04.99 bitrate=7363.6kbits/s speed=88.8x    frame=21539 fps=2151 q=-1.0 size=  800512kB time=00:14:45.93 bitrate=7402.1kbits/s speed=88.5x    frame=22396 fps=2130 q=-1.0 size=  842496kB time=00:15:28.49 bitrate=7433.3kbits/s speed=88.3x    frame=23394 fps=2124 q=-1.0 size=  891136kB time=00:16:17.99 bitrate=7464.5kbits/s speed=88.8x    frame=24353 fps=2115 q=-1.0 size=  937984kB time=00:17:05.66 bitrate=7491.7kbits/s speed=89.1x    frame=25301 fps=2106 q=-1.0 size=  983040kB time=00:17:51.15 bitrate=7518.1kbits/s speed=89.1x    frame=26081 fps=2084 q=-1.0 size= 1022208kB time=00:18:29.86 bitrate=7545.0kbits/s speed=88.7x    frame=26888 fps=2066 q=-1.0 size= 1061376kB time=00:19:09.96 bitrate=7560.9kbits/s speed=88.4x    frame=27672 fps=2047 q=-1.0 size= 1099264kB time=00:19:48.94 bitrate=7574.1kbits/s speed=  88x    frame=28492 fps=2033 q=-1.0 size= 1139456kB time=00:20:29.65 bitrate=7591.1kbits/s speed=87.7x    frame=29290 fps=2018 q=-1.0 size= 1178624kB time=00:21:09.27 bitrate=7606.9kbits/s speed=87.4x    frame=30153 fps=2008 q=-1.0 size= 1221120kB time=00:21:52.08 bitrate=7624.1kbits/s speed=87.4x    frame=30970 fps=1996 q=-1.0 size= 1261056kB time=00:22:32.72 bitrate=7636.9kbits/s speed=87.2x    frame=31752 fps=1982 q=-1.0 size= 1300224kB time=00:23:11.54 bitrate=7654.4kbits/s speed=86.9x    frame=32558 fps=1971 q=-1.0 size= 1340160kB time=00:23:51.54 bitrate=7669.1kbits/s speed=86.7x    frame=33327 fps=1958 q=-1.0 size= 1378560kB time=00:24:29.71 bitrate=7683.9kbits/s speed=86.3x    frame=34131 fps=1948 q=-1.0 size= 1418240kB time=00:25:09.67 bitrate=7695.8kbits/s speed=86.2x    frame=34920 fps=1938 q=-1.0 size= 1457152kB time=00:25:48.90 bitrate=7706.7kbits/s speed=85.9x    frame=35704 fps=1928 q=-1.0 size= 1496064kB time=00:26:27.22 bitrate=7721.5kbits/s speed=85.7x    frame=36661 fps=1927 q=-1.0 size= 1543168kB time=00:27:14.80 bitrate=7732.8kbits/s speed=85.9x    frame=37509 fps=1921 q=-1.0 size= 1583616kB time=00:27:56.96 bitrate=7736.0kbits/s speed=85.9x    frame=38330 fps=1914 q=-1.0 size= 1622784kB time=00:28:37.74 bitrate=7739.1kbits/s speed=85.8x    frame=39146 fps=1907 q=-1.0 size= 1662720kB time=00:29:18.32 bitrate=7746.6kbits/s speed=85.7x    frame=39898 fps=1898 q=-1.0 size= 1699072kB time=00:29:55.69 bitrate=7751.2kbits/s speed=85.4x    frame=40692 fps=1891 q=-1.0 size= 1738240kB time=00:30:35.08 bitrate=7759.7kbits/s speed=85.3x    frame=41482 fps=1884 q=-1.0 size= 1777152kB time=00:31:14.46 bitrate=7766.7kbits/s speed=85.1x    frame=42270 fps=1877 q=-1.0 size= 1816576kB time=00:31:53.70 bitrate=7776.2kbits/s speed=  85x    frame=43062 fps=1870 q=-1.0 size= 1856000kB time=00:32:33.05 bitrate=7784.9kbits/s speed=84.8x    frame=43906 fps=1866 q=-1.0 size= 1896192kB time=00:33:14.33 bitrate=7788.9kbits/s speed=84.8x    frame=44658 fps=1859 q=-1.0 size= 1934592kB time=00:33:51.68 bitrate=7800.5kbits/s speed=84.6x    frame=45536 fps=1857 q=-1.0 size= 1977344kB time=00:34:35.41 bitrate=7804.9kbits/s speed=84.6x    frame=46405 fps=1854 q=-1.0 size= 2018304kB time=00:35:17.97 bitrate=7806.5kbits/s speed=84.6x    frame=47182 fps=1848 q=-1.0 size= 2057984kB time=00:35:56.54 bitrate=7817.6kbits/s speed=84.5x    frame=47996 fps=1844 q=-1.0 size= 2097664kB time=00:36:36.30 bitrate=7824.1kbits/s speed=84.4x    frame=48789 fps=1839 q=-1.0 size= 2137088kB time=00:37:15.63 bitrate=7830.9kbits/s speed=84.3x    frame=49661 fps=1837 q=-1.0 size= 2177280kB time=00:37:58.67 bitrate=7827.5kbits/s speed=84.3x    frame=50590 fps=1838 q=-1.0 size= 2220800kB time=00:38:44.84 bitrate=7825.4kbits/s speed=84.5x    frame=51440 fps=1835 q=-1.0 size= 2262016kB time=00:39:27.10 bitrate=7828.3kbits/s speed=84.5x    frame=52323 fps=1834 q=-1.0 size= 2306048kB time=00:40:11.02 bitrate=7835.3kbits/s speed=84.5x    frame=53190 fps=1832 q=-1.0 size= 2348800kB time=00:40:54.14 bitrate=7840.4kbits/s speed=84.5x    frame=54047 fps=1830 q=-1.0 size= 2391296kB time=00:41:36.74 bitrate=7846.0kbits/s speed=84.5x    frame=54876 fps=1827 q=-1.0 size= 2432512kB time=00:42:17.88 bitrate=7851.9kbits/s speed=84.5x    frame=55717 fps=1825 q=-1.0 size= 2474496kB time=00:42:59.64 bitrate=7858.1kbits/s speed=84.5x    frame=56446 fps=1819 q=-1.0 size= 2510080kB time=00:43:35.80 bitrate=7860.9kbits/s speed=84.3x    frame=57252 fps=1816 q=-1.0 size= 2550016kB time=00:44:15.80 bitrate=7865.7kbits/s speed=84.2x    frame=58138 fps=1815 q=-1.0 size= 2592768kB time=00:44:58.83 bitrate=7870.1kbits/s speed=84.3x    frame=58870 fps=1810 q=-1.0 size= 2631168kB time=00:45:35.00 bitrate=7881.0kbits/s speed=84.1x    frame=60457 fps=1830 q=-1.0 size= 2671104kB time=00:46:34.96 bitrate=7829.0kbits/s speed=84.6x    frame=63272 fps=1887 q=-1.0 size= 2707968kB time=00:48:34.72 bitrate=7610.9kbits/s speed=86.9x    [flv @ 0x56402ff56780] Auto-inserting h264_mp4toannexb bitstream filter
    Last message repeated 1 times
frame=66330 fps=1949 q=-1.0 size= 2735104kB time=00:49:54.26 bitrate=7483.0kbits/s speed=  88x    [flv @ 0x56402ff56780] Auto-inserting h264_mp4toannexb bitstream filter
    Last message repeated 4 times
frame=68862 fps=1994 q=-1.0 size= 2753792kB time=00:50:42.62 bitrate=7414.4kbits/s speed=88.1x    frame=71932 fps=2053 q=-1.0 size= 2792192kB time=00:51:33.77 bitrate=7393.4kbits/s speed=88.3x    frame=73868 fps=2078 q=-1.0 size= 2831616kB time=00:52:06.03 bitrate=7420.4kbits/s speed=  88x    frame=76635 fps=2126 q=-1.0 size= 2872320kB time=00:52:52.15 bitrate=7417.7kbits/s speed=  88x    frame=78488 fps=2148 q=-1.0 size= 2909696kB time=00:53:23.04 bitrate=7441.7kbits/s speed=87.7x    frame=80324 fps=2168 q=-1.0 size= 2946816kB time=00:53:53.63 bitrate=7465.4kbits/s speed=87.3x    frame=82547 fps=2199 q=-1.0 size= 2985728kB time=00:54:30.69 bitrate=7478.3kbits/s speed=87.1x    frame=84345 fps=2217 q=-1.0 size= 3021568kB time=00:55:00.65 bitrate=7499.3kbits/s speed=86.8x    frame=86404 fps=2242 q=-1.0 size= 3060736kB time=00:55:34.97 bitrate=7518.4kbits/s speed=86.5x    frame=89671 fps=2297 q=-1.0 size= 3096320kB time=00:56:29.43 bitrate=7483.6kbits/s speed=86.8x    frame=91767 fps=2321 q=-1.0 size= 3130880kB time=00:57:04.35 bitrate=7489.9kbits/s speed=86.6x    frame=93886 fps=2345 q=-1.0 size= 3169280kB time=00:57:39.68 bitrate=7504.4kbits/s speed=86.4x    frame=95847 fps=2364 q=-1.0 size= 3205632kB time=00:58:12.37 bitrate=7519.4kbits/s speed=86.1x    frame=98605 fps=2402 q=-1.0 size= 3241472kB time=00:58:58.32 bitrate=7504.7kbits/s speed=86.2x    frame=101439 fps=2442 q=-1.0 size= 3277312kB time=00:59:45.55 bitrate=7487.7kbits/s speed=86.3x    frame=103342 fps=2458 q=-1.0 size= 3311104kB time=01:00:17.27 bitrate=7498.6kbits/s speed=  86x    frame=105400 fps=2477 q=-1.0 size= 3346432kB time=01:00:51.58 bitrate=7507.4kbits/s speed=85.8x    frame=107661 fps=2501 q=-1.0 size= 3383296kB time=01:01:29.25 bitrate=7512.6kbits/s speed=85.7x    frame=109880 fps=2523 q=-1.0 size= 3419392kB time=01:02:06.23 bitrate=7517.4kbits/s speed=85.6x    frame=111924 fps=2541 q=-1.0 size= 3455232kB time=01:02:40.31 bitrate=7527.4kbits/s speed=85.4x    frame=114093 fps=2561 q=-1.0 size= 3493888kB time=01:03:16.45 bitrate=7539.1kbits/s speed=85.2x    frame=117089 fps=2599 q=-1.0 size= 3528448kB time=01:04:06.38 bitrate=7514.9kbits/s speed=85.4x    frame=119545 fps=2625 q=-1.0 size= 3565568kB time=01:04:47.32 bitrate=7513.9kbits/s speed=85.3x    frame=121610 fps=2641 q=-1.0 size= 3599872kB time=01:05:21.74 bitrate=7519.6kbits/s speed=85.2x    frame=124612 fps=2677 q=-1.0 size= 3633664kB time=01:06:11.77 bitrate=7494.6kbits/s speed=85.3x    frame=126925 fps=2698 q=-1.0 size= 3670528kB time=01:06:50.32 bitrate=7497.9kbits/s speed=85.2x    frame=128679 fps=2706 q=-1.0 size= 3706880kB time=01:07:19.57 bitrate=7517.3kbits/s speed=  85x    frame=130981 fps=2726 q=-1.0 size= 3740160kB time=01:07:57.92 bitrate=7513.5kbits/s speed=84.9x    frame=133468 fps=2749 q=-1.0 size= 3776768kB time=01:08:39.37 bitrate=7510.7kbits/s speed=84.8x    frame=135624 fps=2765 q=-1.0 size= 3813632kB time=01:09:15.30 bitrate=7518.4kbits/s speed=84.7x    frame=138418 fps=2793 q=-1.0 size= 3848704kB time=01:10:01.87 bitrate=7503.5kbits/s speed=84.8x    frame=140311 fps=2803 q=-1.0 size= 3885568kB time=01:10:33.42 bitrate=7518.9kbits/s speed=84.6x    frame=142228 fps=2814 q=-1.0 size= 3922688kB time=01:11:05.38 bitrate=7533.8kbits/s speed=84.4x    frame=144899 fps=2838 q=-1.0 size= 3959040kB time=01:11:49.88 bitrate=7525.1kbits/s speed=84.4x    frame=147457 fps=2860 q=-1.0 size= 3996416kB time=01:12:32.53 bitrate=7521.7kbits/s speed=84.4x    frame=149514 fps=2872 q=-1.0 size= 4030976kB time=01:13:06.80 bitrate=7527.5kbits/s speed=84.3x    frame=151589 fps=2885 q=-1.0 size= 4066048kB time=01:13:41.38 bitrate=7533.6kbits/s speed=84.1x    frame=154103 fps=2905 q=-1.0 size= 4108288kB time=01:14:23.28 bitrate=7540.4kbits/s speed=84.1x    frame=156208 fps=2917 q=-1.0 size= 4143104kB time=01:14:58.37 bitrate=7545.0kbits/s speed=  84x    frame=158114 fps=2925 q=-1.0 size= 4178688kB time=01:15:30.15 bitrate=7556.4kbits/s speed=83.8x    frame=159944 fps=2932 q=-1.0 size= 4212992kB time=01:16:00.63 bitrate=7567.5kbits/s speed=83.6x    frame=162059 fps=2944 q=-1.0 size= 4248832kB time=01:16:35.90 bitrate=7573.4kbits/s speed=83.5x    frame=164030 fps=2953 q=-1.0 size= 4285696kB time=01:17:08.75 bitrate=7584.9kbits/s speed=83.3x    frame=166253 fps=2966 q=-1.0 size= 4319488kB time=01:17:45.78 bitrate=7584.0kbits/s speed=83.2x    frame=169145 fps=2991 q=-1.0 size= 4352512kB time=01:18:34.00 bitrate=7563.8kbits/s speed=83.4x    frame=171737 fps=3010 q=-1.0 size= 4387072kB time=01:19:17.18 bitrate=7554.6kbits/s speed=83.4x    frame=174407 fps=3030 q=-1.0 size= 4425984kB time=01:20:01.70 bitrate=7551.0kbits/s speed=83.4x    frame=177202 fps=3052 q=-1.0 size= 4463872kB time=01:20:48.27 bitrate=7542.5kbits/s speed=83.5x    frame=180045 fps=3075 q=-1.0 size= 4501248kB time=01:21:35.65 bitrate=7532.0kbits/s speed=83.6x    frame=181973 fps=3081 q=-1.0 size= 4538112kB time=01:22:07.80 bitrate=7544.2kbits/s speed=83.4x    frame=184767 fps=3102 q=-1.0 size= 4573184kB time=01:22:54.35 bitrate=7531.3kbits/s speed=83.5x    frame=186787 fps=3110 q=-1.0 size= 4612864kB time=01:23:28.02 bitrate=7545.6kbits/s speed=83.4x    frame=189758 fps=3134 q=-1.0 size= 4648704kB time=01:24:17.53 bitrate=7529.8kbits/s speed=83.5x    frame=192528 fps=3153 q=-1.0 size= 4688640kB time=01:25:03.71 bitrate=7525.8kbits/s speed=83.6x    frame=195691 fps=3179 q=-1.0 size= 4732416kB time=01:25:56.43 bitrate=7518.4kbits/s speed=83.8x    frame=198094 fps=3192 q=-1.0 size= 4769536kB time=01:26:36.47 bitrate=7519.0kbits/s speed=83.7x    frame=200777 fps=3209 q=-1.0 size= 4806400kB time=01:27:21.18 bitrate=7512.4kbits/s speed=83.8x    frame=204082 fps=3236 q=-1.0 size= 4843008kB time=01:28:16.27 bitrate=7490.9kbits/s speed=  84x    frame=206611 fps=3251 q=-1.0 size= 4882944kB time=01:28:58.42 bitrate=7493.0kbits/s speed=  84x    frame=208914 fps=3261 q=-1.0 size= 4922112kB time=01:29:36.80 bitrate=7499.2kbits/s speed=83.9x    frame=211196 fps=3271 q=-1.0 size= 4961280kB time=01:30:14.84 bitrate=7505.8kbits/s speed=83.9x    frame=213272 fps=3278 q=-1.0 size= 4996608kB time=01:30:49.43 bitrate=7511.3kbits/s speed=83.8x    frame=215485 fps=3287 q=-1.0 size= 5035520kB time=01:31:26.32 bitrate=7518.9kbits/s speed=83.7x    frame=217646 fps=3295 q=-1.0 size= 5072640kB time=01:32:02.34 bitrate=7524.9kbits/s speed=83.6x    frame=219795 fps=3302 q=-1.0 size= 5108992kB time=01:32:38.15 bitrate=7530.0kbits/s speed=83.5x    frame=222027 fps=3311 q=-1.0 size= 5147136kB time=01:33:15.36 bitrate=7535.8kbits/s speed=83.4x    frame=224270 fps=3319 q=-1.0 size= 5184768kB time=01:33:52.74 bitrate=7540.5kbits/s speed=83.4x    frame=226410 fps=3326 q=-1.0 size= 5222656kB time=01:34:28.40 bitrate=7547.8kbits/s speed=83.3x    frame=228728 fps=3336 q=-1.0 size= 5262080kB time=01:35:07.04 bitrate=7553.3kbits/s speed=83.2x    frame=230905 fps=3343 q=-1.0 size= 5299200kB time=01:35:43.32 bitrate=7558.5kbits/s speed=83.2x    frame=233226 fps=3353 q=-1.0 size= 5339648kB time=01:36:22.00 bitrate=7565.3kbits/s speed=83.1x    frame=235603 fps=3363 q=-1.0 size= 5380352kB time=01:37:01.62 bitrate=7571.1kbits/s speed=83.1x    frame=237877 fps=3371 q=-1.0 size= 5419264kB time=01:37:39.53 bitrate=7576.5kbits/s speed=  83x    frame=240150 fps=3379 q=-1.0 size= 5458688kB time=01:38:17.40 bitrate=7582.6kbits/s speed=  83x    frame=242515 fps=3389 q=-1.0 size= 5499648kB time=01:38:56.82 bitrate=7588.8kbits/s speed=  83x    frame=244621 fps=3394 q=-1.0 size= 5536768kB time=01:39:31.92 bitrate=7595.1kbits/s speed=82.9x    frame=246995 fps=3404 q=-1.0 size= 5576448kB time=01:40:11.49 bitrate=7599.2kbits/s speed=82.8x    frame=249173 fps=3410 q=-1.0 size= 5615104kB time=01:40:47.78 bitrate=7605.9kbits/s speed=82.8x    frame=251155 fps=3414 q=-1.0 size= 5649664kB time=01:41:20.82 bitrate=7611.1kbits/s speed=82.7x    frame=253478 fps=3422 q=-1.0 size= 5689856kB time=01:41:59.53 bitrate=7616.8kbits/s speed=82.6x    frame=255757 fps=3430 q=-1.0 size= 5728768kB time=01:42:37.52 bitrate=7621.6kbits/s speed=82.6x    frame=257948 fps=3436 q=-1.0 size= 5766400kB time=01:43:14.03 bitrate=7626.4kbits/s speed=82.5x    frame=260249 fps=3444 q=-1.0 size= 5806080kB time=01:43:52.38 bitrate=7631.6kbits/s speed=82.5x    frame=262620 fps=3452 q=-1.0 size= 5846784kB time=01:44:31.91 bitrate=7636.7kbits/s speed=82.4x    frame=264679 fps=3457 q=-1.0 size= 5882624kB time=01:45:06.23 bitrate=7641.7kbits/s speed=82.4x    frame=267013 fps=3464 q=-1.0 size= 5922048kB time=01:45:45.12 bitrate=7645.8kbits/s speed=82.3x    frame=269290 fps=3471 q=-1.0 size= 5961216kB time=01:46:23.07 bitrate=7650.6kbits/s speed=82.3x    frame=271617 fps=3479 q=-1.0 size= 6001664kB time=01:47:01.86 bitrate=7656.0kbits/s speed=82.3x    frame=273920 fps=3486 q=-1.0 size= 6041600kB time=01:47:40.24 bitrate=7661.1kbits/s speed=82.2x    frame=276856 fps=3501 q=-1.0 size= 6080000kB time=01:48:29.18 bitrate=7651.9kbits/s speed=82.3x    frame=279175 fps=3508 q=-1.0 size= 6119936kB time=01:49:07.83 bitrate=7656.7kbits/s speed=82.3x    frame=281509 fps=3516 q=-1.0 size= 6160128kB time=01:49:46.72 bitrate=7661.4kbits/s speed=82.3x    frame=283728 fps=3521 q=-1.0 size= 6198016kB time=01:50:23.71 bitrate=7665.5kbits/s speed=82.2x    frame=286021 fps=3528 q=-1.0 size= 6237440kB time=01:51:01.92 bitrate=7670.0kbits/s speed=82.2x    frame=288142 fps=3532 q=-1.0 size= 6273536kB time=01:51:37.27 bitrate=7673.7kbits/s speed=82.1x    frame=290314 fps=3537 q=-1.0 size= 6312192kB time=01:52:13.47 bitrate=7679.5kbits/s speed=  82x    frame=292594 fps=3543 q=-1.0 size= 6351872kB time=01:52:51.47 bitrate=7684.4kbits/s speed=  82x    frame=294723 fps=3548 q=-1.0 size= 6388480kB time=01:53:26.95 bitrate=7688.4kbits/s speed=81.9x    frame=297061 fps=3554 q=-1.0 size= 6428928kB time=01:54:05.92 bitrate=7693.0kbits/s speed=81.9x    frame=299122 fps=3558 q=-1.0 size= 6465280kB time=01:54:40.27 bitrate=7697.9kbits/s speed=81.8x    frame=301278 fps=3562 q=-1.0 size= 6502400kB time=01:55:16.20 bitrate=7701.9kbits/s speed=81.8x    frame=303494 fps=3567 q=-1.0 size= 6540800kB time=01:55:53.14 bitrate=7706.2kbits/s speed=81.7x    frame=305693 fps=3572 q=-1.0 size= 6578944kB time=01:56:29.79 bitrate=7710.5kbits/s speed=81.7x    frame=308006 fps=3578 q=-1.0 size= 6618880kB time=01:57:08.34 bitrate=7714.7kbits/s speed=81.7x    frame=310619 fps=3588 q=-1.0 size= 6663424kB time=01:57:51.89 bitrate=7718.8kbits/s speed=81.7x    frame=313066 fps=3595 q=-1.0 size= 6706688kB time=01:58:32.67 bitrate=7724.4kbits/s speed=81.7x    frame=315466 fps=3602 q=-1.0 size= 6747904kB time=01:59:12.67 bitrate=7728.4kbits/s speed=81.7x    frame=317675 fps=3607 q=-1.0 size= 6786560kB time=01:59:49.48 bitrate=7732.9kbits/s speed=81.6x    frame=319896 fps=3611 q=-1.0 size= 6824192kB time=02:00:26.51 bitrate=7735.9kbits/s speed=81.6x    frame=322093 fps=3616 q=-1.0 size= 6862080kB time=02:01:03.12 bitrate=7739.7kbits/s speed=81.5x    frame=324271 fps=3620 q=-1.0 size= 6899712kB time=02:01:39.42 bitrate=7743.4kbits/s speed=81.5x    frame=326245 fps=3622 q=-1.0 size= 6933248kB time=02:02:12.32 bitrate=7746.1kbits/s speed=81.4x    frame=328745 fps=3629 q=-1.0 size= 6976768kB time=02:02:53.98 bitrate=7750.7kbits/s speed=81.4x    frame=331482 fps=3639 q=-1.0 size= 7015936kB time=02:03:39.60 bitrate=7746.3kbits/s speed=81.5x    frame=333584 fps=3643 q=-1.0 size= 7052288kB time=02:04:14.63 bitrate=7749.9kbits/s speed=81.4x    frame=335819 fps=3647 q=-1.0 size= 7090432kB time=02:04:51.88 bitrate=7753.0kbits/s speed=81.4x    frame=338062 fps=3652 q=-1.0 size= 7128576kB time=02:05:29.27 bitrate=7756.0kbits/s speed=81.3x    frame=340303 fps=3656 q=-1.0 size= 7166976kB time=02:06:06.62 bitrate=7759.3kbits/s speed=81.3x    frame=342576 fps=3661 q=-1.0 size= 7205376kB time=02:06:44.51 bitrate=7762.0kbits/s speed=81.3x    frame=344631 fps=3663 q=-1.0 size= 7240960kB time=02:07:18.75 bitrate=7765.4kbits/s speed=81.2x    frame=346767 fps=3666 q=-1.0 size= 7277312kB time=02:07:54.35 bitrate=7768.2kbits/s speed=81.1x    frame=348987 fps=3670 q=-1.0 size= 7315712kB time=02:08:31.35 bitrate=7771.7kbits/s speed=81.1x    frame=350973 fps=3672 q=-1.0 size= 7350016kB time=02:09:04.45 bitrate=7774.8kbits/s speed=  81x    frame=353249 fps=3676 q=-1.0 size= 7388672kB time=02:09:42.38 bitrate=7777.6kbits/s speed=  81x    frame=355405 fps=3680 q=-1.0 size= 7425792kB time=02:10:18.32 bitrate=7780.7kbits/s speed=80.9x    frame=357390 fps=3681 q=-1.0 size= 7461120kB time=02:10:51.40 bitrate=7784.8kbits/s speed=80.9x    frame=359640 fps=3685 q=-1.0 size= 7499520kB time=02:11:28.91 bitrate=7787.6kbits/s speed=80.8x    frame=361880 fps=3689 q=-1.0 size= 7538432kB time=02:12:06.23 bitrate=7791.2kbits/s speed=80.8x    frame=363853 fps=3691 q=-1.0 size= 7573248kB time=02:12:39.12 bitrate=7794.8kbits/s speed=80.7x    frame=366080 fps=3695 q=-1.0 size= 7611904kB time=02:13:16.24 bitrate=7798.3kbits/s speed=80.7x    frame=368187 fps=3697 q=-1.0 size= 7649280kB time=02:13:51.35 bitrate=7802.3kbits/s speed=80.6x    frame=370474 fps=3702 q=-1.0 size= 7688960kB time=02:14:29.47 bitrate=7805.7kbits/s speed=80.6x    frame=372683 fps=3705 q=-1.0 size= 7727360kB time=02:15:06.28 bitrate=7809.1kbits/s speed=80.6x    frame=374963 fps=3709 q=-1.0 size= 7766784kB time=02:15:44.29 bitrate=7812.3kbits/s speed=80.6x    frame=377143 fps=3713 q=-1.0 size= 7805696kB time=02:16:20.62 bitrate=7816.5kbits/s speed=80.5x    frame=379492 fps=3717 q=-1.0 size= 7846400kB time=02:16:59.77 bitrate=7819.9kbits/s speed=80.5x    frame=381717 fps=3721 q=-1.0 size= 7884544kB time=02:17:36.85 bitrate=7822.6kbits/s speed=80.5x    frame=383941 fps=3724 q=-1.0 size= 7923712kB time=02:18:13.92 bitrate=7826.3kbits/s speed=80.5x    frame=386213 fps=3728 q=-1.0 size= 7962112kB time=02:18:51.79 bitrate=7828.5kbits/s speed=80.4x    frame=388335 fps=3731 q=-1.0 size= 7999232kB time=02:19:27.15 bitrate=7831.8kbits/s speed=80.4x    frame=390640 fps=3735 q=-1.0 size= 8038912kB time=02:20:05.58 bitrate=7834.6kbits/s speed=80.4x    frame=392886 fps=3739 q=-1.0 size= 8077824kB time=02:20:43.00 bitrate=7837.7kbits/s speed=80.3x    frame=395191 fps=3743 q=-1.0 size= 8117504kB time=02:21:21.42 bitrate=7840.5kbits/s speed=80.3x    frame=397456 fps=3746 q=-1.0 size= 8155648kB time=02:21:59.17 bitrate=7842.4kbits/s speed=80.3x    frame=399744 fps=3750 q=-1.0 size= 8195840kB time=02:22:37.30 bitrate=7846.0kbits/s speed=80.3x    frame=401824 fps=3752 q=-1.0 size= 8231424kB time=02:23:11.97 bitrate=7848.2kbits/s speed=80.2x    frame=404111 fps=3756 q=-1.0 size= 8271616kB time=02:23:50.09 bitrate=7851.7kbits/s speed=80.2x    frame=406381 fps=3760 q=-1.0 size= 8309760kB time=02:24:27.92 bitrate=7853.5kbits/s speed=80.2x    frame=408577 fps=3763 q=-1.0 size= 8347648kB time=02:25:04.53 bitrate=7856.1kbits/s speed=80.2x    frame=410891 fps=3767 q=-1.0 size= 8387072kB time=02:25:43.10 bitrate=7858.4kbits/s speed=80.1x    frame=413048 fps=3769 q=-1.0 size= 8424960kB time=02:26:19.04 bitrate=7861.6kbits/s speed=80.1x    frame=415182 fps=3771 q=-1.0 size= 8462080kB time=02:26:54.61 bitrate=7864.4kbits/s speed=80.1x    frame=417532 fps=3776 q=-1.0 size= 8502272kB time=02:27:33.77 bitrate=7866.8kbits/s speed=80.1x    frame=419682 fps=3778 q=-1.0 size= 8539904kB time=02:28:09.61 bitrate=7869.7kbits/s speed=  80x    frame=421983 fps=3782 q=-1.0 size= 8579584kB time=02:28:47.95 bitrate=7872.3kbits/s speed=  80x    frame=424352 fps=3786 q=-1.0 size= 8620800kB time=02:29:27.44 bitrate=7875.3kbits/s speed=  80x    frame=426416 fps=3787 q=-1.0 size= 8657408kB time=02:30:01.85 bitrate=7878.5kbits/s speed=  80x    frame=428677 fps=3791 q=-1.0 size= 8696320kB time=02:30:39.52 bitrate=7881.0kbits/s speed=79.9x    frame=431009 fps=3794 q=-1.0 size= 8736512kB time=02:31:18.38 bitrate=7883.5kbits/s speed=79.9x    frame=433269 fps=3798 q=-1.0 size= 8775424kB time=02:31:56.07 bitrate=7885.9kbits/s speed=79.9x    frame=435708 fps=3802 q=-1.0 size= 8814336kB time=02:32:36.71 bitrate=7885.7kbits/s speed=79.9x    frame=437924 fps=3805 q=-1.0 size= 8853504kB time=02:33:13.63 bitrate=7888.9kbits/s speed=79.9x    frame=440207 fps=3808 q=-1.0 size= 8892416kB time=02:33:51.69 bitrate=7890.9kbits/s speed=79.9x    frame=443177 fps=3817 q=-1.0 size= 8936960kB time=02:34:41.19 bitrate=7888.2kbits/s speed=79.9x    frame=447961 fps=3842 q=-1.0 size= 8970752kB time=02:36:00.92 bitrate=7850.6kbits/s speed=80.3x    frame=451669 fps=3857 q=-1.0 size= 9007104kB time=02:37:02.72 bitrate=7830.7kbits/s speed=80.5x    frame=454616 fps=3866 q=-1.0 size= 9044736kB time=02:37:51.83 bitrate=7822.6kbits/s speed=80.5x    frame=456797 fps=3868 q=-1.0 size= 9080832kB time=02:38:28.18 bitrate=7823.8kbits/s speed=80.5x    frame=458675 fps=3868 q=-1.0 size= 9118720kB time=02:38:59.48 bitrate=7830.7kbits/s speed=80.4x    frame=461495 fps=3875 q=-1.0 size= 9157632kB time=02:39:46.48 bitrate=7825.5kbits/s speed=80.5x    frame=463396 fps=3875 q=-1.0 size= 9193984kB time=02:40:18.17 bitrate=7830.7kbits/s speed=80.4x    frame=465290 fps=3874 q=-1.0 size= 9232384kB time=02:40:49.74 bitrate=7837.7kbits/s speed=80.4x    frame=467239 fps=3874 q=-1.0 size= 9271808kB time=02:41:22.23 bitrate=7844.7kbits/s speed=80.3x    frame=469042 fps=3873 q=-1.0 size= 9309184kB time=02:41:52.27 bitrate=7852.0kbits/s speed=80.2x    frame=471744 fps=3880 q=-1.0 size= 9351168kB time=02:42:37.30 bitrate=7851.0kbits/s speed=80.2x    frame=473641 fps=3879 q=-1.0 size= 9389312kB time=02:43:08.92 bitrate=7857.6kbits/s speed=80.2x    frame=475407 fps=3878 q=-1.0 size= 9424896kB time=02:43:38.36 bitrate=7863.7kbits/s speed=80.1x    frame=477447 fps=3879 q=-1.0 size= 9466368kB time=02:44:12.35 bitrate=7871.1kbits/s speed=  80x    frame=479935 fps=3883 q=-1.0 size= 9504768kB time=02:44:53.82 bitrate=7869.9kbits/s speed=  80x    frame=481842 fps=3883 q=-1.0 size= 9540864kB time=02:45:25.60 bitrate=7874.5kbits/s speed=  80x    frame=484011 fps=3885 q=-1.0 size= 9580544kB time=02:46:01.76 bitrate=7878.5kbits/s speed=  80x    frame=486520 fps=3889 q=-1.0 size= 9617664kB time=02:46:43.57 bitrate=7876.0kbits/s speed=  80x    frame=489506 fps=3897 q=-1.0 size= 9652480kB time=02:47:33.33 bitrate=7865.4kbits/s speed=  80x    frame=491789 fps=3900 q=-1.0 size= 9687040kB time=02:48:11.38 bitrate=7863.8kbits/s speed=  80x    frame=494155 fps=3903 q=-1.0 size= 9723904kB time=02:48:50.82 bitrate=7863.0kbits/s speed=  80x    frame=497085 fps=3911 q=-1.0 size= 9760000kB time=02:49:39.66 bitrate=7854.3kbits/s speed=80.1x    frame=499612 fps=3915 q=-1.0 size= 9798144kB time=02:50:21.77 bitrate=7852.5kbits/s speed=80.1x    frame=501367 fps=3914 q=-1.0 size= 9833728kB time=02:50:51.02 bitrate=7858.5kbits/s speed=  80x    frame=503454 fps=3915 q=-1.0 size= 9870848kB time=02:51:25.82 bitrate=7861.5kbits/s speed=  80x    frame=505658 fps=3917 q=-1.0 size= 9909760kB time=02:52:02.53 bitrate=7864.4kbits/s speed=  80x    frame=507621 fps=3917 q=-1.0 size= 9949440kB time=02:52:35.26 bitrate=7871.0kbits/s speed=79.9x    frame=509666 fps=3917 q=-1.0 size= 9988864kB time=02:53:09.35 bitrate=7876.2kbits/s speed=79.9x    frame=511736 fps=3918 q=-1.0 size=10028800kB time=02:53:43.83 bitrate=7881.5kbits/s speed=79.8x    frame=513586 fps=3917 q=-1.0 size=10064896kB time=02:54:14.67 bitrate=7886.6kbits/s speed=79.7x    frame=515570 fps=3918 q=-1.0 size=10105088kB time=02:54:47.74 bitrate=7893.1kbits/s speed=79.7x    frame=518216 fps=3923 q=-1.0 size=10143232kB time=02:55:31.83 bitrate=7889.7kbits/s speed=79.7x    frame=519962 fps=3921 q=-1.0 size=10177024kB time=02:56:00.93 bitrate=7894.2kbits/s speed=79.6x    frame=522305 fps=3924 q=-1.0 size=10213888kB time=02:56:39.99 bitrate=7893.6kbits/s speed=79.6x    frame=524082 fps=3923 q=-1.0 size=10250752kB time=02:57:09.60 bitrate=7900.0kbits/s speed=79.6x    frame=525829 fps=3921 q=-1.0 size=10284288kB time=02:57:38.72 bitrate=7904.2kbits/s speed=79.5x    frame=528430 fps=3926 q=-1.0 size=10323968kB time=02:58:22.07 bitrate=7902.6kbits/s speed=79.5x    frame=530722 fps=3928 q=-1.0 size=10361088kB time=02:59:00.28 bitrate=7902.8kbits/s speed=79.5x    frame=533005 fps=3931 q=-1.0 size=10398208kB time=02:59:38.32 bitrate=7903.1kbits/s speed=79.5x    frame=535769 fps=3936 q=-1.0 size=10435840kB time=03:00:24.40 bitrate=7897.9kbits/s speed=79.5x    frame=537735 fps=3936 q=-1.0 size=10470656kB time=03:00:57.15 bitrate=7900.4kbits/s speed=79.5x    frame=539877 fps=3938 q=-1.0 size=10508800kB time=03:01:32.86 bitrate=7903.2kbits/s speed=79.4x    frame=542085 fps=3939 q=-1.0 size=10546944kB time=03:02:09.65 bitrate=7905.1kbits/s speed=79.4x    frame=544821 fps=3945 q=-1.0 size=10583296kB time=03:02:55.27 bitrate=7899.4kbits/s speed=79.5x    frame=546775 fps=3945 q=-1.0 size=10622208kB time=03:03:27.82 bitrate=7905.0kbits/s speed=79.4x    frame=549159 fps=3948 q=-1.0 size=10658816kB time=03:04:07.57 bitrate=7903.7kbits/s speed=79.4x    frame=550859 fps=3946 q=-1.0 size=10694400kB time=03:04:35.88 bitrate=7909.8kbits/s speed=79.3x    frame=554116 fps=3955 q=-1.0 size=10731776kB time=03:05:30.17 bitrate=7898.8kbits/s speed=79.4x    frame=556508 fps=3958 q=-1.0 size=10769408kB time=03:06:10.03 bitrate=7898.2kbits/s speed=79.4x    frame=558577 fps=3958 q=-1.0 size=10807040kB time=03:06:44.52 bitrate=7901.4kbits/s speed=79.4x    frame=560443 fps=3958 q=-1.0 size=10845696kB time=03:07:15.62 bitrate=7907.7kbits/s speed=79.3x    frame=562359 fps=3957 q=-1.0 size=10884096kB time=03:07:47.55 bitrate=7913.2kbits/s speed=79.3x    frame=564260 fps=3957 q=-1.0 size=10921216kB time=03:08:19.23 bitrate=7917.9kbits/s speed=79.2x    frame=566282 fps=3957 q=-1.0 size=10960896kB time=03:08:52.94 bitrate=7923.1kbits/s speed=79.2x    frame=568144 fps=3956 q=-1.0 size=10998272kB time=03:09:23.98 bitrate=7928.4kbits/s speed=79.1x    frame=570946 fps=3962 q=-1.0 size=11035648kB time=03:10:10.68 bitrate=7922.8kbits/s speed=79.2x    frame=573744 fps=3967 q=-1.0 size=11074560kB time=03:10:57.31 bitrate=7918.3kbits/s speed=79.2x    frame=576706 fps=3974 q=-1.0 size=11110912kB time=03:11:46.68 bitrate=7910.2kbits/s speed=79.3x    frame=579673 fps=3981 q=-1.0 size=11147776kB time=03:12:36.13 bitrate=7902.5kbits/s speed=79.4x    frame=581906 fps=3983 q=-1.0 size=11185152kB time=03:13:13.33 bitrate=7903.6kbits/s speed=79.3x    frame=583837 fps=3982 q=-1.0 size=11222016kB time=03:13:45.52 bitrate=7907.7kbits/s speed=79.3x    frame=585948 fps=3983 q=-1.0 size=11258880kB time=03:14:20.71 bitrate=7909.7kbits/s speed=79.3x    frame=588388 fps=3986 q=-1.0 size=11298048kB time=03:15:01.37 bitrate=7909.6kbits/s speed=79.3x    frame=591494 fps=3993 q=-1.0 size=11335680kB time=03:15:53.14 bitrate=7901.0kbits/s speed=79.4x    frame=594213 fps=3998 q=-1.0 size=11373824kB time=03:16:38.45 bitrate=7897.2kbits/s speed=79.4x    frame=596199 fps=3998 q=-1.0 size=11413504kB time=03:17:11.57 bitrate=7902.5kbits/s speed=79.3x    frame=598781 fps=4002 q=-1.0 size=11454464kB time=03:17:54.59 bitrate=7902.2kbits/s speed=79.4x    frame=600631 fps=4001 q=-1.0 size=11492608kB time=03:18:25.42 bitrate=7907.9kbits/s speed=79.3x    frame=603136 fps=4004 q=-1.0 size=11528448kB time=03:19:07.17 bitrate=7904.9kbits/s speed=79.3x    frame=605163 fps=4005 q=-1.0 size=11563264kB time=03:19:40.96 bitrate=7906.4kbits/s speed=79.3x    frame=607163 fps=4005 q=-1.0 size=11598336kB time=03:20:14.29 bitrate=7908.4kbits/s speed=79.2x    frame=609541 fps=4007 q=-1.0 size=11632128kB time=03:20:53.92 bitrate=7905.3kbits/s speed=79.2x    frame=611154 fps=4004 q=-1.0 size=11665664kB time=03:21:20.80 bitrate=7910.5kbits/s speed=79.2x    frame=613523 fps=4007 q=-1.0 size=11698688kB time=03:22:00.29 bitrate=7907.0kbits/s speed=79.2x    frame=615339 fps=4006 q=-1.0 size=11732736kB time=03:22:30.56 bitrate=7910.3kbits/s speed=79.1x    frame=617029 fps=4004 q=-1.0 size=11766016kB time=03:22:58.72 bitrate=7914.4kbits/s speed=  79x    frame=619631 fps=4007 q=-1.0 size=11799296kB time=03:23:42.08 bitrate=7908.6kbits/s speed=  79x    frame=621895 fps=4009 q=-1.0 size=11832320kB time=03:24:19.82 bitrate=7906.3kbits/s speed=  79x    frame=623949 fps=4009 q=-1.0 size=11865344kB time=03:24:54.05 bitrate=7906.3kbits/s speed=  79x    frame=626070 fps=4010 q=-1.0 size=11899136kB time=03:25:29.40 bitrate=7906.1kbits/s speed=  79x    frame=628995 fps=4016 q=-1.0 size=11932928kB time=03:26:18.15 bitrate=7897.3kbits/s speed=  79x    frame=630744 fps=4014 q=-1.0 size=11966720kB time=03:26:47.31 bitrate=7901.1kbits/s speed=  79x    frame=632450 fps=4012 q=-1.0 size=12000000kB time=03:27:15.75 bitrate=7905.0kbits/s speed=78.9x    frame=634231 fps=4011 q=-1.0 size=12034816kB time=03:27:45.42 bitrate=7909.0kbits/s speed=78.8x    frame=636073 fps=4010 q=-1.0 size=12067328kB time=03:28:16.12 bitrate=7910.9kbits/s speed=78.8x    frame=638324 fps=4011 q=-1.0 size=12101632kB time=03:28:53.65 bitrate=7909.6kbits/s speed=78.8x    frame=640304 fps=4011 q=-1.0 size=12135424kB time=03:29:26.65 bitrate=7910.9kbits/s speed=78.7x    frame=642291 fps=4011 q=-1.0 size=12169472kB time=03:29:59.75 bitrate=7912.2kbits/s speed=78.7x    frame=644200 fps=4011 q=-1.0 size=12203264kB time=03:30:31.57 bitrate=7914.2kbits/s speed=78.6x    frame=646278 fps=4011 q=-1.0 size=12236800kB time=03:31:06.21 bitrate=7914.3kbits/s speed=78.6x    frame=648768 fps=4014 q=-1.0 size=12271360kB time=03:31:47.70 bitrate=7910.7kbits/s speed=78.6x    frame=651049 fps=4016 q=-1.0 size=12305920kB time=03:32:25.72 bitrate=7909.3kbits/s speed=78.6x    frame=653390 fps=4018 q=-1.0 size=12338432kB time=03:33:04.73 bitrate=7906.0kbits/s speed=78.6x    frame=655035 fps=4016 q=-1.0 size=12372736kB time=03:33:32.15 bitrate=7911.0kbits/s speed=78.5x    frame=656746 fps=4014 q=-1.0 size=12408576kB time=03:34:00.67 bitrate=7916.3kbits/s speed=78.5x    frame=659051 fps=4015 q=-1.0 size=12443136kB time=03:34:39.08 bitrate=7914.7kbits/s speed=78.5x    frame=660983 fps=4015 q=-1.0 size=12480000kB time=03:35:11.28 bitrate=7918.4kbits/s speed=78.4x    frame=663285 fps=4017 q=-1.0 size=12518400kB time=03:35:49.67 bitrate=7919.2kbits/s speed=78.4x    frame=665683 fps=4019 q=-1.0 size=12553216kB time=03:36:29.62 bitrate=7916.8kbits/s speed=78.4x    frame=667887 fps=4020 q=-1.0 size=12592128kB time=03:37:06.36 bitrate=7918.9kbits/s speed=78.4x    frame=670823 fps=4026 q=-1.0 size=12636672kB time=03:37:55.28 bitrate=7917.2kbits/s speed=78.5x    frame=672832 fps=4026 q=-1.0 size=12674560kB time=03:38:28.77 bitrate=7920.6kbits/s speed=78.4x    frame=674632 fps=4025 q=-1.0 size=12710912kB time=03:38:58.77 bitrate=7925.2kbits/s speed=78.4x    frame=676941 fps=4026 q=-1.0 size=12748288kB time=03:39:37.25 bitrate=7925.3kbits/s speed=78.4x    frame=678609 fps=4024 q=-1.0 size=12780544kB time=03:40:05.05 bitrate=7928.6kbits/s speed=78.3x    frame=681517 fps=4030 q=-1.0 size=12815872kB time=03:40:53.52 bitrate=7921.5kbits/s speed=78.4x    frame=683893 fps=4032 q=-1.0 size=12855296kB time=03:41:33.12 bitrate=7922.2kbits/s speed=78.4x    frame=686209 fps=4033 q=-1.0 size=12893952kB time=03:42:11.72 bitrate=7923.0kbits/s speed=78.4x    frame=688880 fps=4037 q=-1.0 size=12931072kB time=03:42:56.23 bitrate=7919.4kbits/s speed=78.4x    frame=690784 fps=4037 q=-1.0 size=12966656kB time=03:43:27.97 bitrate=7922.4kbits/s speed=78.3x    frame=694077 fps=4044 q=-1.0 size=13001984kB time=03:44:22.85 bitrate=7911.6kbits/s speed=78.4x    frame=697021 fps=4049 q=-1.0 size=13039616kB time=03:45:11.93 bitrate=7905.6kbits/s speed=78.5x    frame=699276 fps=4051 q=-1.0 size=13078528kB time=03:45:49.50 bitrate=7907.2kbits/s speed=78.5x    frame=701703 fps=4053 q=-1.0 size=13113856kB time=03:46:29.95 bitrate=7905.0kbits/s speed=78.5x    frame=704425 fps=4057 q=-1.0 size=13150208kB time=03:47:15.32 bitrate=7900.5kbits/s speed=78.5x    frame=707269 fps=4062 q=-1.0 size=13187328kB time=03:48:02.72 bitrate=7895.4kbits/s speed=78.6x    frame=709167 fps=4061 q=-1.0 size=13222656kB time=03:48:34.36 bitrate=7898.3kbits/s speed=78.5x    frame=711851 fps=4065 q=-1.0 size=13261312kB time=03:49:19.08 bitrate=7895.6kbits/s speed=78.6x    frame=713815 fps=4064 q=-1.0 size=13302016kB time=03:49:51.82 bitrate=7901.1kbits/s speed=78.5x    frame=715562 fps=4063 q=-1.0 size=13336832kB time=03:50:20.93 bitrate=7905.1kbits/s speed=78.5x    frame=717840 fps=4064 q=-1.0 size=13375488kB time=03:50:58.91 bitrate=7906.2kbits/s speed=78.5x    frame=720727 fps=4069 q=-1.0 size=13413632kB time=03:51:47.02 bitrate=7901.4kbits/s speed=78.5x    frame=722656 fps=4068 q=-1.0 size=13453568kB time=03:52:19.17 bitrate=7906.6kbits/s speed=78.5x    frame=724579 fps=4068 q=-1.0 size=13492224kB time=03:52:51.22 bitrate=7911.1kbits/s speed=78.4x    frame=726931 fps=4069 q=-1.0 size=13525760kB time=03:53:30.42 bitrate=7908.6kbits/s speed=78.4x    frame=729509 fps=4072 q=-1.0 size=13564928kB time=03:54:13.38 bitrate=7907.3kbits/s speed=78.5x    frame=731927 fps=4074 q=-1.0 size=13601792kB time=03:54:53.69 bitrate=7906.1kbits/s speed=78.5x    frame=734388 fps=4077 q=-1.0 size=13638144kB time=03:55:34.70 bitrate=7904.2kbits/s speed=78.5x    frame=737640 fps=4083 q=-1.0 size=13674496kB time=03:56:28.90 bitrate=7895.0kbits/s speed=78.5x    frame=739844 fps=4084 q=-1.0 size=13711104kB time=03:57:05.63 bitrate=7895.7kbits/s speed=78.5x    frame=742260 fps=4086 q=-1.0 size=13749760kB time=03:57:45.90 bitrate=7895.6kbits/s speed=78.5x    frame=744727 fps=4089 q=-1.0 size=13786368kB time=03:58:27.02 bitrate=7893.9kbits/s speed=78.5x    frame=746529 fps=4087 q=-1.0 size=13822720kB time=03:58:57.05 bitrate=7898.1kbits/s speed=78.5x    frame=749056 fps=4090 q=-1.0 size=13860864kB time=03:59:39.17 bitrate=7896.7kbits/s speed=78.5x    frame=751708 fps=4093 q=-1.0 size=13898240kB time=04:00:23.37 bitrate=7893.7kbits/s speed=78.5x    frame=754130 fps=4095 q=-1.0 size=13933312kB time=04:01:03.73 bitrate=7891.6kbits/s speed=78.5x    frame=756220 fps=4096 q=-1.0 size=13972224kB time=04:01:38.57 bitrate=7894.6kbits/s speed=78.5x    frame=758601 fps=4097 q=-1.0 size=14012160kB time=04:02:18.25 bitrate=7895.6kbits/s speed=78.5x    frame=760786 fps=4098 q=-1.0 size=14049024kB time=04:02:54.67 bitrate=7896.5kbits/s speed=78.5x    frame=762869 fps=4098 q=-1.0 size=14088704kB time=04:03:29.40 bitrate=7900.0kbits/s speed=78.5x    frame=764667 fps=4097 q=-1.0 size=14126080kB time=04:03:59.35 bitrate=7904.8kbits/s speed=78.4x    frame=767132 fps=4099 q=-1.0 size=14162688kB time=04:04:40.43 bitrate=7903.1kbits/s speed=78.4x    frame=769150 fps=4099 q=-1.0 size=14203392kB time=04:05:14.08 bitrate=7907.7kbits/s speed=78.4x    frame=771013 fps=4098 q=-1.0 size=14241024kB time=04:05:45.12 bitrate=7911.9kbits/s speed=78.4x    frame=772896 fps=4097 q=-1.0 size=14278656kB time=04:06:16.50 bitrate=7916.0kbits/s speed=78.3x    frame=774793 fps=4096 q=-1.0 size=14317056kB time=04:06:48.12 bitrate=7920.3kbits/s speed=78.3x    frame=776722 fps=4096 q=-1.0 size=14354944kB time=04:07:20.27 bitrate=7924.1kbits/s speed=78.3x    frame=778675 fps=4095 q=-1.0 size=14395392kB time=04:07:52.82 bitrate=7929.0kbits/s speed=78.2x    frame=780682 fps=4095 q=-1.0 size=14436096kB time=04:08:26.27 bitrate=7933.6kbits/s speed=78.2x    frame=782586 fps=4094 q=-1.0 size=14473216kB time=04:08:58.00 bitrate=7937.1kbits/s speed=78.1x    frame=784545 fps=4094 q=-1.0 size=14513920kB time=04:09:30.66 bitrate=7942.1kbits/s speed=78.1x    frame=786968 fps=4096 q=-1.0 size=14554112kB time=04:10:11.03 bitrate=7942.6kbits/s speed=78.1x    frame=789559 fps=4098 q=-1.0 size=14590976kB time=04:10:54.22 bitrate=7939.9kbits/s speed=78.1x    frame=792495 fps=4103 q=-1.0 size=14630400kB time=04:11:43.15 bitrate=7935.6kbits/s speed=78.2x    frame=795140 fps=4106 q=-1.0 size=14669056kB time=04:12:27.23 bitrate=7933.4kbits/s speed=78.2x    frame=798081 fps=4111 q=-1.0 size=14708480kB time=04:13:16.26 bitrate=7929.0kbits/s speed=78.3x    frame=800937 fps=4115 q=-1.0 size=14747648kB time=04:14:03.85 bitrate=7925.3kbits/s speed=78.3x    frame=804375 fps=4122 q=-1.0 size=14785280kB time=04:15:01.15 bitrate=7915.8kbits/s speed=78.4x    frame=806882 fps=4124 q=-1.0 size=14824960kB time=04:15:42.93 bitrate=7915.4kbits/s speed=78.4x    frame=808946 fps=4124 q=-1.0 size=14865664kB time=04:16:17.33 bitrate=7919.4kbits/s speed=78.4x    frame=810905 fps=4124 q=-1.0 size=14903808kB time=04:16:49.98 bitrate=7922.9kbits/s speed=78.4x    frame=812761 fps=4123 q=-1.0 size=14942208kB time=04:17:20.93 bitrate=7927.4kbits/s speed=78.3x    frame=814627 fps=4122 q=-1.0 size=14981120kB time=04:17:52.02 bitrate=7932.1kbits/s speed=78.3x    frame=816525 fps=4121 q=-1.0 size=15020288kB time=04:18:23.65 bitrate=7936.6kbits/s speed=78.2x    frame=818391 fps=4120 q=-1.0 size=15059200kB time=04:18:54.75 bitrate=7941.2kbits/s speed=78.2x    frame=820126 fps=4118 q=-1.0 size=15095296kB time=04:19:23.67 bitrate=7945.5kbits/s speed=78.1x    frame=821874 fps=4117 q=-1.0 size=15131392kB time=04:19:52.80 bitrate=7949.6kbits/s speed=78.1x    frame=823680 fps=4115 q=-1.0 size=15169024kB time=04:20:22.90 bitrate=7954.0kbits/s speed=78.1x    frame=825510 fps=4114 q=-1.0 size=15207168kB time=04:20:53.40 bitrate=7958.5kbits/s speed=  78x    frame=827375 fps=4113 q=-1.0 size=15246080kB time=04:21:24.49 bitrate=7963.0kbits/s speed=  78x    frame=829223 fps=4112 q=-1.0 size=15284480kB time=04:21:55.28 bitrate=7967.4kbits/s speed=77.9x    frame=831132 fps=4111 q=-1.0 size=15323904kB time=04:22:27.11 bitrate=7971.8kbits/s speed=77.9x    frame=832988 fps=4110 q=-1.0 size=15362560kB time=04:22:58.03 bitrate=7976.3kbits/s speed=77.9x    frame=834845 fps=4109 q=-1.0 size=15401216kB time=04:23:28.99 bitrate=7980.7kbits/s speed=77.8x    frame=836761 fps=4109 q=-1.0 size=15440896kB time=04:24:00.93 bitrate=7985.1kbits/s speed=77.8x    frame=838670 fps=4108 q=-1.0 size=15480576kB time=04:24:32.73 bitrate=7989.6kbits/s speed=77.7x    frame=840380 fps=4106 q=-1.0 size=15516160kB time=04:25:01.23 bitrate=7993.6kbits/s speed=77.7x    frame=842630 fps=4107 q=-1.0 size=15556864kB time=04:25:38.74 bitrate=7995.7kbits/s speed=77.7x    frame=844880 fps=4108 q=-1.0 size=15594752kB time=04:26:16.23 bitrate=7996.4kbits/s speed=77.7x    frame=846611 fps=4107 q=-1.0 size=15630592kB time=04:26:45.09 bitrate=8000.3kbits/s speed=77.6x    frame=848499 fps=4106 q=-1.0 size=15669760kB time=04:27:16.56 bitrate=8004.6kbits/s speed=77.6x    frame=850398 fps=4105 q=-1.0 size=15709440kB time=04:27:48.22 bitrate=8009.1kbits/s speed=77.6x    frame=852210 fps=4104 q=-1.0 size=15746816kB time=04:28:18.40 bitrate=8013.1kbits/s speed=77.5x    frame=854125 fps=4103 q=-1.0 size=15786752kB time=04:28:50.32 bitrate=8017.5kbits/s speed=77.5x    frame=856037 fps=4103 q=-1.0 size=15826432kB time=04:29:22.19 bitrate=8021.8kbits/s speed=77.5x    frame=857948 fps=4102 q=-1.0 size=15866112kB time=04:29:54.03 bitrate=8026.1kbits/s speed=77.4x    frame=859800 fps=4101 q=-1.0 size=15904768kB time=04:30:24.91 bitrate=8030.4kbits/s speed=77.4x    frame=861675 fps=4100 q=-1.0 size=15943680kB time=04:30:56.16 bitrate=8034.5kbits/s speed=77.4x    frame=863892 fps=4101 q=-1.0 size=15989760kB time=04:31:33.10 bitrate=8039.5kbits/s speed=77.3x    frame=866128 fps=4102 q=-1.0 size=16036096kB time=04:32:10.38 bitrate=8044.4kbits/s speed=77.3x    frame=868184 fps=4102 q=-1.0 size=16078848kB time=04:32:44.64 bitrate=8048.9kbits/s speed=77.3x    frame=870356 fps=4102 q=-1.0 size=16124160kB time=04:33:20.83 bitrate=8053.8kbits/s speed=77.3x    frame=872740 fps=4104 q=-1.0 size=16169216kB time=04:34:00.57 bitrate=8056.8kbits/s speed=77.3x    frame=874692 fps=4103 q=-1.0 size=16209920kB time=04:34:33.10 bitrate=8061.1kbits/s speed=77.3x    frame=876930 fps=4104 q=-1.0 size=16249600kB time=04:35:10.41 bitrate=8062.6kbits/s speed=77.3x    frame=878798 fps=4103 q=-1.0 size=16288256kB time=04:35:41.54 bitrate=8066.6kbits/s speed=77.2x    frame=880709 fps=4103 q=-1.0 size=16327936kB time=04:36:13.39 bitrate=8070.7kbits/s speed=77.2x    frame=882618 fps=4102 q=-1.0 size=16367616kB time=04:36:45.20 bitrate=8074.8kbits/s speed=77.2x    frame=884469 fps=4101 q=-1.0 size=16406016kB time=04:37:16.07 bitrate=8078.7kbits/s speed=77.1x    frame=886309 fps=4100 q=-1.0 size=16444416kB time=04:37:46.72 bitrate=8082.7kbits/s speed=77.1x    frame=888261 fps=4100 q=-1.0 size=16484864kB time=04:38:19.26 bitrate=8086.8kbits/s speed=77.1x    frame=889981 fps=4098 q=-1.0 size=16520704kB time=04:38:47.93 bitrate=8090.5kbits/s speed=  77x    frame=891810 fps=4097 q=-1.0 size=16558592kB time=04:39:18.40 bitrate=8094.3kbits/s speed=  77x    frame=893591 fps=4096 q=-1.0 size=16595456kB time=04:39:48.08 bitrate=8098.0kbits/s speed=  77x    frame=895535 fps=4096 q=-1.0 size=16636160kB time=04:40:20.48 bitrate=8102.2kbits/s speed=76.9x    frame=897656 fps=4096 q=-1.0 size=16679936kB time=04:40:55.84 bitrate=8106.5kbits/s speed=76.9x    frame=899576 fps=4095 q=-1.0 size=16720128kB time=04:41:27.83 bitrate=8110.6kbits/s speed=76.9x    frame=901319 fps=4094 q=-1.0 size=16756224kB time=04:41:56.88 bitrate=8114.2kbits/s speed=76.8x    frame=903230 fps=4093 q=-1.0 size=16795904kB time=04:42:28.73 bitrate=8118.1kbits/s speed=76.8x    frame=905330 fps=4093 q=-1.0 size=16839424kB time=04:43:03.73 bitrate=8122.4kbits/s speed=76.8x    frame=907624 fps=4095 q=-1.0 size=16881408kB time=04:43:41.97 bitrate=8124.4kbits/s speed=76.8x    frame=909709 fps=4095 q=-1.0 size=16924672kB time=04:44:16.72 bitrate=8128.6kbits/s speed=76.8x    frame=911890 fps=4095 q=-1.0 size=16963072kB time=04:44:53.07 bitrate=8129.7kbits/s speed=76.8x    frame=913793 fps=4095 q=-1.0 size=17001984kB time=04:45:24.79 bitrate=8133.3kbits/s speed=76.7x    frame=915805 fps=4095 q=-1.0 size=17043968kB time=04:45:58.33 bitrate=8137.4kbits/s speed=76.7x    frame=917539 fps=4093 q=-1.0 size=17080064kB time=04:46:27.22 bitrate=8140.9kbits/s speed=76.7x    frame=919359 fps=4092 q=-1.0 size=17117696kB time=04:46:57.55 bitrate=8144.5kbits/s speed=76.6x    frame=921214 fps=4091 q=-1.0 size=17156352kB time=04:47:28.48 bitrate=8148.2kbits/s speed=76.6x    frame=923020 fps=4090 q=-1.0 size=17193984kB time=04:47:58.57 bitrate=8151.9kbits/s speed=76.6x    frame=924910 fps=4090 q=-1.0 size=17232896kB time=04:48:30.07 bitrate=8155.5kbits/s speed=76.5x    frame=926796 fps=4089 q=-1.0 size=17272320kB time=04:49:01.50 bitrate=8159.3kbits/s speed=76.5x    frame=928875 fps=4089 q=-1.0 size=17309952kB time=04:49:36.16 bitrate=8160.8kbits/s speed=76.5x    frame=931085 fps=4090 q=-1.0 size=17347584kB time=04:50:12.98 bitrate=8161.2kbits/s speed=76.5x    frame=932978 fps=4089 q=-1.0 size=17386752kB time=04:50:44.54 bitrate=8164.9kbits/s speed=76.5x    frame=934852 fps=4088 q=-1.0 size=17425664kB time=04:51:15.77 bitrate=8168.5kbits/s speed=76.4x    frame=936714 fps=4087 q=-1.0 size=17464576kB time=04:51:46.80 bitrate=8172.2kbits/s speed=76.4x    frame=938585 fps=4087 q=-1.0 size=17503488kB time=04:52:17.98 bitrate=8175.9kbits/s speed=76.4x    frame=940300 fps=4085 q=-1.0 size=17539072kB time=04:52:46.57 bitrate=8179.2kbits/s speed=76.3x    frame=942167 fps=4085 q=-1.0 size=17578240kB time=04:53:17.69 bitrate=8182.9kbits/s speed=76.3x    frame=943864 fps=4083 q=-1.0 size=17613312kB time=04:53:45.97 bitrate=8186.1kbits/s speed=76.2x    frame=945668 fps=4082 q=-1.0 size=17650688kB time=04:54:16.03 bitrate=8189.5kbits/s speed=76.2x    frame=947525 fps=4081 q=-1.0 size=17689344kB time=04:54:46.98 bitrate=8193.1kbits/s speed=76.2x    frame=949253 fps=4080 q=-1.0 size=17725184kB time=04:55:15.78 bitrate=8196.3kbits/s speed=76.1x    frame=951095 fps=4079 q=-1.0 size=17763328kB time=04:55:46.48 bitrate=8199.8kbits/s speed=76.1x    frame=952976 fps=4078 q=-1.0 size=17802752kB time=04:56:17.85 bitrate=8203.5kbits/s speed=76.1x    frame=954740 fps=4077 q=-1.0 size=17839360kB time=04:56:47.25 bitrate=8206.8kbits/s speed=  76x    frame=956709 fps=4077 q=-1.0 size=17880320kB time=04:57:20.05 bitrate=8210.5kbits/s speed=  76x    frame=958820 fps=4077 q=-1.0 size=17918720kB time=04:57:55.23 bitrate=8211.9kbits/s speed=  76x    frame=960825 fps=4077 q=-1.0 size=17954304kB time=04:58:28.65 bitrate=8212.9kbits/s speed=  76x    frame=962618 fps=4076 q=-1.0 size=17991680kB time=04:58:58.53 bitrate=8216.3kbits/s speed=  76x    frame=964414 fps=4075 q=-1.0 size=18028800kB time=04:59:28.48 bitrate=8219.5kbits/s speed=75.9x    frame=966124 fps=4073 q=-1.0 size=18064384kB time=04:59:56.97 bitrate=8222.7kbits/s speed=75.9x    frame=967951 fps=4073 q=-1.0 size=18102272kB time=05:00:27.43 bitrate=8226.0kbits/s speed=75.8x    frame=969710 fps=4071 q=-1.0 size=18138880kB time=05:00:56.73 bitrate=8229.3kbits/s speed=75.8x    frame=971445 fps=4070 q=-1.0 size=18174976kB time=05:01:25.65 bitrate=8232.5kbits/s speed=75.8x    frame=973270 fps=4069 q=-1.0 size=18212864kB time=05:01:56.07 bitrate=8235.8kbits/s speed=75.7x    frame=975033 fps=4068 q=-1.0 size=18249472kB time=05:02:25.46 bitrate=8239.0kbits/s speed=75.7x    frame=976819 fps=4067 q=-1.0 size=18286592kB time=05:02:55.22 bitrate=8242.2kbits/s speed=75.7x    frame=978649 fps=4066 q=-1.0 size=18324736kB time=05:03:25.72 bitrate=8245.6kbits/s speed=75.6x    frame=980425 fps=4065 q=-1.0 size=18361600kB time=05:03:55.32 bitrate=8248.7kbits/s speed=75.6x    frame=982121 fps=4064 q=-1.0 size=18396672kB time=05:04:23.58 bitrate=8251.7kbits/s speed=75.6x    frame=983899 fps=4063 q=-1.0 size=18433536kB time=05:04:53.22 bitrate=8254.8kbits/s speed=75.5x    frame=985566 fps=4061 q=-1.0 size=18468352kB time=05:05:21.02 bitrate=8257.9kbits/s speed=75.5x    frame=987353 fps=4060 q=-1.0 size=18505472kB time=05:05:50.78 bitrate=8261.1kbits/s speed=75.5x    frame=989201 fps=4059 q=-1.0 size=18543872kB time=05:06:21.58 bitrate=8264.3kbits/s speed=75.4x    frame=990984 fps=4058 q=-1.0 size=18580992kB time=05:06:51.30 bitrate=8267.5kbits/s speed=75.4x    frame=992759 fps=4057 q=-1.0 size=18617856kB time=05:07:20.88 bitrate=8270.6kbits/s speed=75.4x    frame=994859 fps=4058 q=-1.0 size=18655744kB time=05:07:55.90 bitrate=8271.7kbits/s speed=75.4x    frame=996625 fps=4057 q=-1.0 size=18692608kB time=05:08:25.32 bitrate=8274.9kbits/s speed=75.3x    frame=998804 fps=4057 q=-1.0 size=18730752kB time=05:09:01.65 bitrate=8275.5kbits/s speed=75.3x    frame=1000600 fps=4056 q=-1.0 size=18767872kB time=05:09:31.58 bitrate=8278.6kbits/s speed=75.3x    frame=1002384 fps=4055 q=-1.0 size=18805248kB time=05:10:01.31 bitrate=8281.8kbits/s speed=75.3x    frame=1004199 fps=4054 q=-1.0 size=18842624kB time=05:10:31.57 bitrate=8284.8kbits/s speed=75.2x    frame=1005953 fps=4053 q=-1.0 size=18879232kB time=05:11:00.78 bitrate=8287.9kbits/s speed=75.2x    frame=1007730 fps=4052 q=-1.0 size=18916096kB time=05:11:30.40 bitrate=8290.9kbits/s speed=75.2x    frame=1009537 fps=4051 q=-1.0 size=18953728kB time=05:12:00.53 bitrate=8294.0kbits/s speed=75.1x    frame=1011116 fps=4050 q=-1.0 size=18986496kB time=05:12:26.83 bitrate=8296.7kbits/s speed=75.1x    frame=1012798 fps=4048 q=-1.0 size=19021312kB time=05:12:54.88 bitrate=8299.5kbits/s speed=  75x    frame=1014510 fps=4047 q=-1.0 size=19057152kB time=05:13:23.40 bitrate=8302.5kbits/s speed=  75x    frame=1016077 fps=4045 q=-1.0 size=19089664kB time=05:13:49.52 bitrate=8305.2kbits/s speed=  75x    frame=1017799 fps=4044 q=-1.0 size=19125504kB time=05:14:18.23 bitrate=8308.1kbits/s speed=74.9x    frame=1019453 fps=4042 q=-1.0 size=19159808kB time=05:14:45.78 bitrate=8310.9kbits/s speed=74.9x    frame=1021060 fps=4041 q=-1.0 size=19193088kB time=05:15:12.57 bitrate=8313.5kbits/s speed=74.8x    frame=1022904 fps=4040 q=-1.0 size=19231488kB time=05:15:43.30 bitrate=8316.6kbits/s speed=74.8x    frame=1024739 fps=4039 q=-1.0 size=19269632kB time=05:16:13.88 bitrate=8319.7kbits/s speed=74.8x    frame=1026455 fps=4038 q=-1.0 size=19305216kB time=05:16:42.49 bitrate=8322.5kbits/s speed=74.8x    frame=1028317 fps=4038 q=-1.0 size=19343872kB time=05:17:13.53 bitrate=8325.6kbits/s speed=74.7x    frame=1030148 fps=4037 q=-1.0 size=19380736kB time=05:17:44.03 bitrate=8328.1kbits/s speed=74.7x    frame=1032268 fps=4037 q=-1.0 size=19420160kB time=05:18:19.37 bitrate=8329.6kbits/s speed=74.7x    frame=1034580 fps=4038 q=-1.0 size=19459584kB time=05:18:57.90 bitrate=8329.7kbits/s speed=74.7x    frame=1036518 fps=4038 q=-1.0 size=19499520kB time=05:19:30.21 bitrate=8332.7kbits/s speed=74.7x    frame=1038393 fps=4037 q=-1.0 size=19538432kB time=05:20:01.46 bitrate=8335.8kbits/s speed=74.7x    frame=1040382 fps=4037 q=-1.0 size=19579648kB time=05:20:34.62 bitrate=8338.9kbits/s speed=74.6x    frame=1042217 fps=4037 q=-1.0 size=19617792kB time=05:21:05.19 bitrate=8341.9kbits/s speed=74.6x    frame=1044165 fps=4036 q=-1.0 size=19658752kB time=05:21:37.65 bitrate=8345.3kbits/s speed=74.6x    frame=1046104 fps=4036 q=-1.0 size=19698432kB time=05:22:09.98 bitrate=8348.1kbits/s speed=74.6x    frame=1047905 fps=4035 q=-1.0 size=19735808kB time=05:22:39.98 bitrate=8351.0kbits/s speed=74.6x    frame=1049792 fps=4035 q=-1.0 size=19774976kB time=05:23:11.43 bitrate=8354.0kbits/s speed=74.5x    frame=1051711 fps=4034 q=-1.0 size=19814912kB time=05:23:43.42 bitrate=8357.1kbits/s speed=74.5x    frame=1053659 fps=4034 q=-1.0 size=19855104kB time=05:24:15.88 bitrate=8360.1kbits/s speed=74.5x    frame=1055760 fps=4034 q=-1.0 size=19898880kB time=05:24:50.91 bitrate=8363.5kbits/s speed=74.5x    frame=1057888 fps=4035 q=-1.0 size=19943168kB time=05:25:26.37 bitrate=8366.9kbits/s speed=74.5x    frame=1059701 fps=4034 q=-1.0 size=19981056kB time=05:25:56.58 bitrate=8369.8kbits/s speed=74.4x    frame=1061651 fps=4034 q=-1.0 size=20021248kB time=05:26:29.08 bitrate=8372.7kbits/s speed=74.4x    frame=1063467 fps=4033 q=-1.0 size=20059136kB time=05:26:59.35 bitrate=8375.6kbits/s speed=74.4x    frame=1065345 fps=4032 q=-1.0 size=20098048kB time=05:27:30.66 bitrate=8378.5kbits/s speed=74.4x    frame=1067233 fps=4032 q=-1.0 size=20137728kB time=05:28:02.12 bitrate=8381.6kbits/s speed=74.4x    frame=1069402 fps=4033 q=-1.0 size=20177152kB time=05:28:38.27 bitrate=8382.6kbits/s speed=74.4x    frame=1071796 fps=4034 q=-1.0 size=20217088kB time=05:29:18.17 bitrate=8382.3kbits/s speed=74.4x    frame=1073674 fps=4033 q=-1.0 size=20255744kB time=05:29:49.47 bitrate=8385.0kbits/s speed=74.3x    frame=1075399 fps=4032 q=-1.0 size=20291840kB time=05:30:18.22 bitrate=8387.8kbits/s speed=74.3x    frame=1077371 fps=4032 q=-1.0 size=20332800kB time=05:30:51.09 bitrate=8390.8kbits/s speed=74.3x    frame=1079262 fps=4032 q=-1.0 size=20371968kB time=05:31:22.62 bitrate=8393.6kbits/s speed=74.3x    frame=1081069 fps=4031 q=-1.0 size=20409600kB time=05:31:52.72 bitrate=8396.4kbits/s speed=74.2x    frame=1083013 fps=4031 q=-1.0 size=20450048kB time=05:32:25.12 bitrate=8399.4kbits/s speed=74.2x    frame=1084825 fps=4030 q=-1.0 size=20487680kB time=05:32:55.32 bitrate=8402.1kbits/s speed=74.2x    frame=1086562 fps=4029 q=-1.0 size=20523776kB time=05:33:24.27 bitrate=8404.7kbits/s speed=74.2x    frame=1088421 fps=4028 q=-1.0 size=20562432kB time=05:33:55.25 bitrate=8407.6kbits/s speed=74.2x    frame=1090355 fps=4028 q=-1.0 size=20602624kB time=05:34:27.49 bitrate=8410.5kbits/s speed=74.1x    frame=1092206 fps=4027 q=-1.0 size=20641024kB time=05:34:58.33 bitrate=8413.2kbits/s speed=74.1x    frame=1094448 fps=4028 q=-1.0 size=20682496kB time=05:35:35.71 bitrate=8414.5kbits/s speed=74.1x    frame=1096637 fps=4029 q=-1.0 size=20721920kB time=05:36:12.18 bitrate=8415.2kbits/s speed=74.1x    frame=1098401 fps=4028 q=-1.0 size=20758528kB time=05:36:41.59 bitrate=8417.8kbits/s speed=74.1x    frame=1100347 fps=4028 q=-1.0 size=20798976kB time=05:37:14.02 bitrate=8420.7kbits/s speed=74.1x    frame=1102300 fps=4027 q=-1.0 size=20839680kB time=05:37:46.57 bitrate=8423.7kbits/s speed=  74x    frame=1104030 fps=4026 q=-1.0 size=20875264kB time=05:38:15.42 bitrate=8426.0kbits/s speed=  74x    frame=1105943 fps=4026 q=-1.0 size=20914944kB time=05:38:47.28 bitrate=8428.8kbits/s speed=  74x    frame=1107832 fps=4026 q=-1.0 size=20954368kB time=05:39:18.78 bitrate=8431.7kbits/s speed=  74x    frame=1109705 fps=4025 q=-1.0 size=20993280kB time=05:39:49.99 bitrate=8434.4kbits/s speed=  74x    frame=1111563 fps=4025 q=-1.0 size=21031936kB time=05:40:20.95 bitrate=8437.1kbits/s speed=73.9x    frame=1113466 fps=4024 q=-1.0 size=21071360kB time=05:40:52.67 bitrate=8439.8kbits/s speed=73.9x    frame=1115278 fps=4023 q=-1.0 size=21108992kB time=05:41:22.87 bitrate=8442.4kbits/s speed=73.9x    frame=1117219 fps=4023 q=-1.0 size=21149440kB time=05:41:55.22 bitrate=8445.3kbits/s speed=73.9x    frame=1118937 fps=4022 q=-1.0 size=21185280kB time=05:42:23.86 bitrate=8447.8kbits/s speed=73.8x    frame=1120856 fps=4022 q=-1.0 size=21224960kB time=05:42:55.83 bitrate=8450.4kbits/s speed=73.8x    frame=1122788 fps=4021 q=-1.0 size=21264896kB time=05:43:28.03 bitrate=8453.1kbits/s speed=73.8x    frame=1124700 fps=4021 q=-1.0 size=21304832kB time=05:43:59.90 bitrate=8455.9kbits/s speed=73.8x    frame=1126607 fps=4021 q=-1.0 size=21344256kB time=05:44:31.69 bitrate=8458.5kbits/s speed=73.8x    frame=1128525 fps=4020 q=-1.0 size=21384192kB time=05:45:03.65 bitrate=8461.3kbits/s speed=73.8x    frame=1130384 fps=4020 q=-1.0 size=21422848kB time=05:45:34.63 bitrate=8463.9kbits/s speed=73.7x    frame=1132586 fps=4020 q=-1.0 size=21462272kB time=05:46:11.34 bitrate=8464.5kbits/s speed=73.7x    frame=1134475 fps=4020 q=-1.0 size=21500416kB time=05:46:42.83 bitrate=8466.7kbits/s speed=73.7x    frame=1136769 fps=4021 q=-1.0 size=21540608kB time=05:47:21.05 bitrate=8467.0kbits/s speed=73.7x    frame=1138597 fps=4020 q=-1.0 size=21578240kB time=05:47:51.52 bitrate=8469.4kbits/s speed=73.7x    frame=1140397 fps=4020 q=-1.0 size=21615616kB time=05:48:21.52 bitrate=8471.9kbits/s speed=73.7x    frame=1142262 fps=4019 q=-1.0 size=21654528kB time=05:48:52.60 bitrate=8474.5kbits/s speed=73.7x    frame=1144088 fps=4018 q=-1.0 size=21692416kB time=05:49:23.03 bitrate=8477.0kbits/s speed=73.6x    frame=1145950 fps=4018 q=-1.0 size=21731328kB time=05:49:54.08 bitrate=8479.7kbits/s speed=73.6x    frame=1147877 fps=4018 q=-1.0 size=21771264kB time=05:50:26.18 bitrate=8482.3kbits/s speed=73.6x    frame=1149619 fps=4017 q=-1.0 size=21807360kB time=05:50:55.22 bitrate=8484.6kbits/s speed=73.6x    frame=1151411 fps=4016 q=-1.0 size=21844736kB time=05:51:25.09 bitrate=8487.1kbits/s speed=73.5x    frame=1153217 fps=4015 q=-1.0 size=21882368kB time=05:51:55.18 bitrate=8489.6kbits/s speed=73.5x    frame=1155003 fps=4014 q=-1.0 size=21919232kB time=05:52:24.95 bitrate=8492.0kbits/s speed=73.5x    frame=1156853 fps=4014 q=-1.0 size=21957632kB time=05:52:55.80 bitrate=8494.5kbits/s speed=73.5x    frame=1158655 fps=4013 q=-1.0 size=21995008kB time=05:53:25.82 bitrate=8496.9kbits/s speed=73.5x    frame=1160519 fps=4013 q=-1.0 size=22033664kB time=05:53:56.88 bitrate=8499.4kbits/s speed=73.4x    frame=1162619 fps=4013 q=-1.0 size=22072064kB time=05:54:31.89 bitrate=8500.2kbits/s speed=73.4x    frame=1164795 fps=4014 q=-1.0 size=22108928kB time=05:55:08.15 bitrate=8499.9kbits/s speed=73.4x    frame=1166665 fps=4013 q=-1.0 size=22147584kB time=05:55:39.32 bitrate=8502.3kbits/s speed=73.4x    frame=1168508 fps=4013 q=-1.0 size=22185984kB time=05:56:10.03 bitrate=8504.8kbits/s speed=73.4x    frame=1170143 fps=4011 q=-1.0 size=22220032kB time=05:56:37.28 bitrate=8507.0kbits/s speed=73.4x    frame=1172010 fps=4011 q=-1.0 size=22258688kB time=05:57:08.40 bitrate=8509.4kbits/s speed=73.3x    frame=1173855 fps=4010 q=-1.0 size=22297344kB time=05:57:39.15 bitrate=8512.0kbits/s speed=73.3x    frame=1175738 fps=4010 q=-1.0 size=22336256kB time=05:58:10.53 bitrate=8514.4kbits/s speed=73.3x    frame=1177595 fps=4009 q=-1.0 size=22374912kB time=05:58:41.48 bitrate=8516.8kbits/s speed=73.3x    frame=1179309 fps=4008 q=-1.0 size=22410496kB time=05:59:10.05 bitrate=8519.1kbits/s speed=73.2x    frame=1181110 fps=4008 q=-1.0 size=22448128kB time=05:59:40.07 bitrate=8521.5kbits/s speed=73.2x    frame=1182941 fps=4007 q=-1.0 size=22486272kB time=06:00:10.59 bitrate=8523.9kbits/s speed=73.2x    frame=1184737 fps=4006 q=-1.0 size=22523392kB time=06:00:40.52 bitrate=8526.2kbits/s speed=73.2x    frame=1186657 fps=4006 q=-1.0 size=22563328kB time=06:01:12.52 bitrate=8528.7kbits/s speed=73.2x    frame=1188529 fps=4006 q=-1.0 size=22601984kB time=06:01:43.72 bitrate=8531.0kbits/s speed=73.1x    frame=1190538 fps=4006 q=-1.0 size=22639360kB time=06:02:17.20 bitrate=8532.0kbits/s speed=73.1x    frame=1192800 fps=4007 q=-1.0 size=22679040kB time=06:02:54.90 bitrate=8532.1kbits/s speed=73.1x    frame=1194586 fps=4006 q=-1.0 size=22716416kB time=06:03:24.67 bitrate=8534.5kbits/s speed=73.1x    frame=1196435 fps=4005 q=-1.0 size=22754560kB time=06:03:55.49 bitrate=8536.8kbits/s speed=73.1x    frame=1198268 fps=4005 q=-1.0 size=22792704kB time=06:04:26.03 bitrate=8539.2kbits/s speed=73.1x    frame=1200037 fps=4004 q=-1.0 size=22829312kB time=06:04:55.52 bitrate=8541.4kbits/s speed=73.1x    frame=1201752 fps=4003 q=-1.0 size=22865152kB time=06:05:24.10 bitrate=8543.6kbits/s speed=  73x    frame=1203600 fps=4002 q=-1.0 size=22903552kB time=06:05:54.90 bitrate=8546.0kbits/s speed=  73x    frame=1205386 fps=4002 q=-1.0 size=22940928kB time=06:06:24.67 bitrate=8548.3kbits/s speed=  73x    frame=1207160 fps=4001 q=-1.0 size=22977792kB time=06:06:54.23 bitrate=8550.6kbits/s speed=  73x    frame=1209031 fps=4001 q=-1.0 size=23016448kB time=06:07:25.42 bitrate=8552.8kbits/s speed=72.9x    frame=1210852 fps=4000 q=-1.0 size=23054336kB time=06:07:55.77 bitrate=8555.1kbits/s speed=72.9x    frame=1212710 fps=3999 q=-1.0 size=23092736kB time=06:08:26.74 bitrate=8557.4kbits/s speed=72.9x    frame=1214596 fps=3999 q=-1.0 size=23132160kB time=06:08:58.17 bitrate=8559.8kbits/s speed=72.9x    frame=1216406 fps=3998 q=-1.0 size=23169792kB time=06:09:28.33 bitrate=8562.1kbits/s speed=72.9x    frame=1218039 fps=3997 q=-1.0 size=23203584kB time=06:09:55.55 bitrate=8564.0kbits/s speed=72.8x    frame=1219909 fps=3997 q=-1.0 size=23242496kB time=06:10:26.72 bitrate=8566.4kbits/s speed=72.8x    frame=1221745 fps=3996 q=-1.0 size=23280640kB time=06:10:57.32 bitrate=8568.6kbits/s speed=72.8x    frame=1223849 fps=3997 q=-1.0 size=23318784kB time=06:11:32.39 bitrate=8569.2kbits/s speed=72.8x    frame=1225633 fps=3996 q=-1.0 size=23355648kB time=06:12:02.13 bitrate=8571.3kbits/s speed=72.8x    frame=1227686 fps=3996 q=-1.0 size=23393024kB time=06:12:36.33 bitrate=8571.9kbits/s speed=72.8x    frame=1229497 fps=3995 q=-1.0 size=23430656kB time=06:13:06.53 bitrate=8574.1kbits/s speed=72.7x    frame=1231349 fps=3995 q=-1.0 size=23469056kB time=06:13:37.40 bitrate=8576.3kbits/s speed=72.7x    frame=1233181 fps=3994 q=-1.0 size=23507200kB time=06:14:07.92 bitrate=8578.6kbits/s speed=72.7x    frame=1235077 fps=3994 q=-1.0 size=23546624kB time=06:14:39.52 bitrate=8580.9kbits/s speed=72.7x    frame=1236824 fps=3993 q=-1.0 size=23582976kB time=06:15:08.64 bitrate=8583.0kbits/s speed=72.7x    frame=1238713 fps=3993 q=-1.0 size=23622144kB time=06:15:40.12 bitrate=8585.3kbits/s speed=72.7x    frame=1240573 fps=3993 q=-1.0 size=23660800kB time=06:16:11.12 bitrate=8587.5kbits/s speed=72.6x    frame=1242293 fps=3992 q=-1.0 size=23696384kB time=06:16:39.80 bitrate=8589.5kbits/s speed=72.6x    frame=1244107 fps=3991 q=-1.0 size=23734272kB time=06:17:10.02 bitrate=8591.7kbits/s speed=72.6x    frame=1246236 fps=3991 q=-1.0 size=23773440kB time=06:17:45.50 bitrate=8592.4kbits/s speed=72.6x    frame=1248148 fps=3991 q=-1.0 size=23810816kB time=06:18:17.38 bitrate=8593.9kbits/s speed=72.6x    frame=1250382 fps=3992 q=-1.0 size=23848960kB time=06:18:54.61 bitrate=8593.5kbits/s speed=72.6x    frame=1252235 fps=3991 q=-1.0 size=23887616kB time=06:19:25.50 bitrate=8595.8kbits/s speed=72.6x    frame=1253989 fps=3991 q=-1.0 size=23923968kB time=06:19:54.72 bitrate=8597.8kbits/s speed=72.5x    frame=1255804 fps=3990 q=-1.0 size=23961600kB time=06:20:24.97 bitrate=8599.9kbits/s speed=72.5x    frame=1257550 fps=3989 q=-1.0 size=23997952kB time=06:20:54.07 bitrate=8602.0kbits/s speed=72.5x    frame=1259265 fps=3988 q=-1.0 size=24033536kB time=06:21:22.66 bitrate=8604.0kbits/s speed=72.5x    frame=1261030 fps=3988 q=-1.0 size=24070144kB time=06:21:52.07 bitrate=8606.1kbits/s speed=72.5x    frame=1262808 fps=3987 q=-1.0 size=24107008kB time=06:22:21.71 bitrate=8608.1kbits/s speed=72.4x    frame=1264499 fps=3986 q=-1.0 size=24142336kB time=06:22:49.88 bitrate=8610.1kbits/s speed=72.4x    frame=1266385 fps=3986 q=-1.0 size=24181504kB time=06:23:21.32 bitrate=8612.3kbits/s speed=72.4x    frame=1268147 fps=3985 q=-1.0 size=24218112kB time=06:23:50.68 bitrate=8614.4kbits/s speed=72.4x    frame=1269926 fps=3984 q=-1.0 size=24254720kB time=06:24:20.34 bitrate=8616.3kbits/s speed=72.4x    frame=1271926 fps=3984 q=-1.0 size=24291584kB time=06:24:53.67 bitrate=8616.9kbits/s speed=72.3x    frame=1273741 fps=3984 q=-1.0 size=24328960kB time=06:25:23.92 bitrate=8618.9kbits/s speed=72.3x    frame=1275881 fps=3984 q=-1.0 size=24365568kB time=06:25:59.59 bitrate=8618.6kbits/s speed=72.3x    frame=1277761 fps=3984 q=-1.0 size=24404736kB time=06:26:30.93 bitrate=8620.8kbits/s speed=72.3x    frame=1279484 fps=3983 q=-1.0 size=24440576kB time=06:26:59.63 bitrate=8622.8kbits/s speed=72.3x    frame=1281331 fps=3983 q=-1.0 size=24478976kB time=06:27:30.42 bitrate=8624.9kbits/s speed=72.3x    frame=1283219 fps=3982 q=-1.0 size=24518144kB time=06:28:01.89 bitrate=8627.0kbits/s speed=72.3x    frame=1285095 fps=3982 q=-1.0 size=24557056kB time=06:28:33.17 bitrate=8629.1kbits/s speed=72.2x    frame=1287000 fps=3982 q=-1.0 size=24596736kB time=06:29:04.90 bitrate=8631.3kbits/s speed=72.2x    frame=1288930 fps=3981 q=-1.0 size=24636672kB time=06:29:37.08 bitrate=8633.4kbits/s speed=72.2x    frame=1290647 fps=3981 q=-1.0 size=24672512kB time=06:30:05.69 bitrate=8635.4kbits/s speed=72.2x    frame=1292531 fps=3980 q=-1.0 size=24711680kB time=06:30:37.09 bitrate=8637.5kbits/s speed=72.2x    frame=1294393 fps=3980 q=-1.0 size=24750336kB time=06:31:08.13 bitrate=8639.6kbits/s speed=72.2x    frame=1296036 fps=3979 q=-1.0 size=24784640kB time=06:31:35.50 bitrate=8641.5kbits/s speed=72.1x    frame=1297902 fps=3978 q=-1.0 size=24823296kB time=06:32:06.60 bitrate=8643.5kbits/s speed=72.1x    frame=1299731 fps=3978 q=-1.0 size=24861184kB time=06:32:37.09 bitrate=8645.5kbits/s speed=72.1x    frame=1301615 fps=3978 q=-1.0 size=24900352kB time=06:33:08.49 bitrate=8647.6kbits/s speed=72.1x    frame=1303481 fps=3977 q=-1.0 size=24939008kB time=06:33:39.60 bitrate=8649.6kbits/s speed=72.1x    frame=1306658 fps=3981 q=-1.0 Lsize=24975191kB time=06:34:32.55 bitrate=8642.8kbits/s speed=72.1x    
video:24361534kB audio:568436kB subtitle:0kB other streams:0kB global headers:0kB muxing overhead: 0.181393%
